<?xml version="1.0" encoding="UTF-8" standalone="no"?>
<!-- Created with Inkscape (http://www.inkscape.org/) -->

<svg
   xmlns:dc="http://purl.org/dc/elements/1.1/"
   xmlns:cc="http://creativecommons.org/ns#"
   xmlns:rdf="http://www.w3.org/1999/02/22-rdf-syntax-ns#"
   xmlns:svg="http://www.w3.org/2000/svg"
   xmlns="http://www.w3.org/2000/svg"
   xmlns:sodipodi="http://sodipodi.sourceforge.net/DTD/sodipodi-0.dtd"
   xmlns:inkscape="http://www.inkscape.org/namespaces/inkscape"
   width="134.90155mm"
   height="89.482994mm"
   viewBox="0 0 477.99762 317.06573"
   id="svg2"
   version="1.1"
   inkscape:version="0.91 r13725"
   sodipodi:docname="sea.svg">
  <defs
     id="defs4" />
  <sodipodi:namedview
     id="base"
     pagecolor="#ffffff"
     bordercolor="#666666"
     borderopacity="1.0"
     inkscape:pageopacity="0.0"
     inkscape:pageshadow="2"
     inkscape:zoom="1.4"
     inkscape:cx="307.77416"
     inkscape:cy="190.64071"
     inkscape:document-units="px"
     inkscape:current-layer="layer2"
     showgrid="false"
     inkscape:window-width="1920"
     inkscape:window-height="1027"
     inkscape:window-x="-8"
     inkscape:window-y="-8"
     inkscape:window-maximized="1"
     fit-margin-top="0"
     fit-margin-left="0"
     fit-margin-right="0"
     fit-margin-bottom="0" />
  <metadata
     id="metadata7">
    <rdf:RDF>
      <cc:Work
         rdf:about="">
        <dc:format>image/svg+xml</dc:format>
        <dc:type
           rdf:resource="http://purl.org/dc/dcmitype/StillImage" />
        <dc:title></dc:title>
      </cc:Work>
    </rdf:RDF>
  </metadata>
  <g
     inkscape:groupmode="layer"
     id="layer2"
     inkscape:label="Layer 2"
     style="opacity:1"
     transform="translate(-129.65488,-357.4399)">
    <path
       style="fill:#00a042;fill-opacity:1;stroke:none;stroke-width:1px;stroke-linecap:butt;stroke-linejoin:miter;stroke-opacity:1"
       d="m 432.14286,483.07649 c 16.52434,14.0725 38.22376,19.59066 59.60868,18.67816 20.08421,0.12761 34.91112,16.5855 50.78792,27.069 16.52135,15.61428 33.91374,30.63466 47.81768,48.71713 2.658,11.33232 -0.82968,22.5563 7.6884,31.90239 4.01231,7.24326 9.56626,14.08268 7.66875,22.87403 -11.91415,0.5508 11.2252,20.02742 -2.66089,21.96616 -10.08992,-11.36296 8.52812,28.27301 -10.08949,10.25141 -4.87823,-4.17542 -15.06866,-18.16157 -6.10066,-2.54319 8.30221,14.265 -5.3641,17.28592 -10.88442,4.08943 -3.50453,-4.48804 -11.25981,-24.08375 -8.49191,-7.10192 -2.0922,13.41219 -14.18071,-10.32044 -25.34406,-8.04546 -3.14786,-8.99939 -10.52946,-3.20157 -16.12202,-9.31766 -6.02037,-7.22971 -11.94113,1.86836 -17.48933,-6.24799 -4.90519,-7.78331 -12.34253,3.73878 -16.28928,-5.76354 -5.14342,-5.80496 -13.39402,-7.13375 -20.81366,-7.24224 -1.39479,-9.53418 -12.49433,4.20686 -11.83979,-4.74027 -8.48314,5.73712 -9.97041,-3.57657 -14.30391,-7.24078 -7.74223,1.05948 -15.01435,-4.01299 -22.9899,-3.62045 -2.58337,-6.69509 -12.49619,-0.64634 -14.2023,-6.83823 -3.6906,-3.38564 -11.87292,-3.89171 -15.92558,-7.92659 -2.07658,-5.21012 -10.00226,-5.8897 -10.32943,-11.95465 -6.03675,-0.58465 -2.88118,-11.96348 -10.10152,-12.80479 -2.47164,9.65723 -12.83638,13.97612 -15.72913,23.54966 -6.71043,12.52152 -13.42086,25.04305 -20.13129,37.56457 -9.44128,-1.31618 -20.06406,0.83523 -27.42746,-6.57938 -8.70884,-4.86145 -15.59156,-13.2461 -18.0294,-22.96758 10.10152,-11.19586 20.20305,-22.39171 30.30457,-33.58757 -1.01374,-8.00724 5.07392,-13.24573 9.34391,-19.1929 -1.83207,-9.20301 -9.92641,-0.66458 -14.67698,-5.36914 -8.40888,3.48742 -8.68939,-7.68721 -17.18482,-2.12285 -2.83252,-6.74862 -12.07924,-3.49324 -14.24297,-10.87499 -5.59385,-2.43433 -9.376,-7.00189 -15.15212,-11.14006 -10.60791,-4.70783 -11.78288,-20.771 -24.42385,-22.11383 -7.9028,-2.3662 -8.33848,-12.58845 -16.09212,-15.0492 -1.20528,-8.60412 -9.72982,-10.69487 -16.16245,-14.64721 -3.00956,-7.1053 -10.7018,-9.09015 -15.85983,-13.43606 -0.77301,-8.82232 -8.89377,-8.99534 -15.04499,-12.4263 0.87873,-6.48041 -3.77889,-7.18206 -10.32761,-11.79488 -4.47683,-7.77835 -16.27522,-1.14121 -20.77238,-9.26636 -1.05115,-4.39133 11.36356,-6.83491 -2.09778,-6.72262 -6.14288,1.13609 -15.17612,-4.38523 -15.66446,-8.46491 7.53713,-5.39508 16.82383,-3.21435 25.47136,-3.80132 -9.74214,-2.74771 -21.40273,-1.60481 -28.18146,-10.36227 1.78787,-4.94353 12.70004,-4.26829 18.65468,-4.52073 -0.15723,-2.6598 -11.76418,-3.62969 -15.00804,-9.36534 0.92538,-4.80473 12.43693,-3.25354 17.79002,-3.16272 11.33718,1.84606 -9.12474,-7.17207 4.47195,-8.95443 11.0275,0.0842 22.055,0.16835 33.0825,0.25253 7.75913,-9.09288 21.1164,-3.52401 31.4508,-3.83468 19.42446,1.0044 37.56567,9.31094 56.06455,14.7405 13.16087,3.82059 25.9511,8.47116 37.35023,16.23684 7.31156,4.39905 15.97459,7.37451 19.29903,15.97344 9.99647,17.0356 23.69964,31.65835 39.95469,42.8563 4.98021,4.35982 12.32812,5.9518 18.51677,6.89685 14.00167,-1.75819 19.4341,-19.11153 33.67101,-20.64173 8.25886,-1.13529 20.03445,-7.2241 11.4255,5.5769 -1.39159,14.22036 -2.85355,28.37817 -4.23571,42.59152 z"
       id="path4147"
       inkscape:connector-curvature="0" />
    <path
       style="fill:#000545;fill-opacity:1;stroke:#00a042;stroke-width:1px;stroke-linecap:butt;stroke-linejoin:miter;stroke-opacity:1"
       d="m 201.33398,359.44531 c -5.07659,-0.77525 -9.2254,2.82077 -12.70312,5.23438 -11.81562,0.41665 -23.89691,-1.1539 -35.56641,0.39062 0.0653,2.14635 6.3069,5.62838 2.23828,8.20313 -6.39679,1.13468 -13.55527,-1.89807 -19.6914,1.09375 3.59195,4.91075 12.31751,3.48551 14.68164,9.29101 1.15925,4.26076 -6.03327,1.38734 -8.52149,2.41407 -2.775,0.31723 -8.07901,0.075 -9.37109,2.48046 8.4762,8.31924 21.73593,4.71137 31.31836,10.84375 -9.35837,3.61678 -20.19924,-1.11587 -28.87109,4.08399 4.18993,5.74772 11.59985,5.89435 18.00586,5.72851 3.45854,-0.42265 4.71285,4.0954 1.58203,5.54102 -3.05225,1.14444 -2.35527,3.92788 0.35742,4.72461 5.76097,1.93906 13.89689,0.0518 17.58984,6.16601 4.33207,3.02762 11.41683,5.54435 10.94531,12.03516 6.01278,2.35717 14.15913,4.88296 14.83399,12.54688 5.41169,3.94292 12.56889,6.56655 15.5293,13.07812 6.31385,3.49249 14.76091,6.5759 16.36523,14.58594 7.73359,3.0763 8.53081,14.69447 17.73242,15.19336 11.13235,3.63592 12.81647,18.07254 23.30469,22.63281 4.7875,3.54049 8.85363,8.21681 14.48633,10.47852 1.41729,6.56284 10.20339,4.48124 13.37109,9.63086 4.54279,-2.68994 8.67313,1.3491 12.40821,3.40234 2.59479,0.32095 4.61896,-1.50687 6.61132,0.74219 4.30933,0.477 10.93565,-2.4311 13.23047,3.05078 2.62894,5.54781 -4.77893,9.09015 -6.74414,13.98828 -3.02782,4.0174 -0.0949,9.70076 -4.92968,12.52051 -8.96484,9.93522 -17.92969,19.87044 -26.89454,29.80566 3.13969,11.68349 13.58384,20.07104 24.12305,25.07227 5.84821,1.69986 12.01261,1.12038 18.00195,1.79687 7.88934,-14.20438 15.09385,-28.85868 22.99219,-42.99023 4.40846,-5.89987 11.19741,-10.46894 12.54102,-18.19922 6.27881,-0.38103 8.73196,6.15735 9.82421,11.18945 1.19649,2.80779 4.49974,1.6778 4.1543,5.39844 3.00239,3.65352 7.90548,5.57098 10.29297,9.81055 5.04322,3.65557 13.08918,3.28852 16.25586,9.13281 4.37192,0.90715 10.13686,0.14906 13.02539,4.20508 7.54957,0.12934 14.46758,4.80268 22.11133,3.54492 3.92217,2.29758 4.82745,9.80181 10.13867,8.91211 4.36846,-2.8874 6.36909,-4.00163 5.65039,1.52148 3.51272,-1.80083 9.82711,-3.58866 11.27734,1.67774 8.63923,0.11335 18.36571,2.9692 22.81446,10.88672 4.19032,0.58773 9.80687,-2.78132 13.24023,1.50195 1.77712,3.66292 5.66488,5.08167 9.53516,3.85351 5.30653,-1.23258 8.37492,3.8586 12.41015,5.82032 4.77476,0.52598 10.47,1.58767 12.63672,6.3125 8.79221,0.12817 13.95516,9.12345 21.14258,12.2207 1.95313,-3.15516 -2.47862,-9.81953 2.75781,-10.84375 5.16102,2.5007 5.97595,9.61052 9.41211,13.85742 1.94066,3.45298 4.8869,9.8539 9.78907,7.99805 2.89222,-6.49177 -5.4794,-11.63732 -5.30665,-17.90039 3.16478,-3.95574 6.43019,2.9789 8.72461,4.72851 2.80084,2.77122 6.14158,7.01156 9.47071,8.08399 0.70648,-5.30626 -3.54811,-11.14646 -0.88672,-16.06055 2.3291,-2.64027 6.45682,4.00393 6.875,-1.0039 -0.45397,-5.99826 -8.00605,-11.80134 -4.37305,-17.86719 2.0158,-1.28218 3.92913,-1.93062 2.72852,-5.00586 -1.65623,-11.79141 -13.4259,-19.35777 -13.86914,-31.5293 -1.06767,-7.74726 0.84384,-16.84852 -5.95425,-22.42317 -13.68814,-15.96087 -29.21729,-30.38029 -45.07724,-44.14059 -15.44612,-10.80546 -30.80426,-26.93548 -51.34351,-25.04366 -20.71346,0.18451 -41.95717,-6.09507 -57.69922,-19.91016 1.59021,-14.82888 2.68576,-29.85077 4.65625,-44.54883 1.88523,-2.35741 4.32703,-6.76023 -0.84803,-4.41146 -7.1892,1.90616 -15.46657,2.08964 -20.80822,8.17709 -7.01925,6.37352 -14.99761,16.49753 -25.7461,13.74023 -13.45641,-1.97305 -23.28107,-12.32199 -33.08398,-20.80078 -10.6244,-9.95809 -19.06354,-22.01074 -26.31641,-34.50195 -6.59917,-6.37129 -15.50539,-9.57251 -23.02734,-14.69336 -18.23919,-9.63522 -38.72507,-13.60542 -57.95987,-20.73097 -11.67538,-4.16716 -23.99647,-5.10855 -36.2322,-6.00554 -3.05521,-0.36317 -6.17808,-0.76675 -9.34895,-0.71857 z"
       id="path4151"
       inkscape:connector-curvature="0" />
    <path
       style="fill:#00a042;fill-opacity:1;stroke:none;stroke-width:1px;stroke-linecap:butt;stroke-linejoin:miter;stroke-opacity:1"
       d="m 199.82422,365.60547 c -13.52364,10.51193 -45.96075,-3.20626 -44.46094,22.70703 6.61743,5.56928 29.66361,11.32211 9.57617,17.56055 -9.4144,12.16941 22.0683,14.59472 24.99805,26.89453 1.58848,-17.01637 -8.00383,-34.22422 9.35156,-47.07227 3.32288,-17.08666 35.40833,-5.86618 35.99219,-16.26367 -11.63526,-2.47405 -23.54609,-3.92156 -35.45703,-3.82617 z m 64.54687,12.40039 c -9.47177,7.65466 -9.40036,20.88685 -6.27148,31.35547 8.8432,7.74387 20.62325,11.50064 30.96289,16.6289 14.94162,1.44927 12.22924,17.01752 12.94141,27.86133 9.983,8.55205 7.52114,25.09001 17.14453,32.66602 11.72146,2.53127 13.73255,16.81354 24.29297,18.04883 9.78188,-4.55918 18.63731,-20.69479 31.35351,-10.44532 10.41347,7.00263 26.95673,1.58354 32.80078,15.28321 7.67174,10.29291 -5.33863,20.23445 -4.70703,31.17187 6.89205,7.19552 21.11289,2.86125 30.29688,2.46094 4.82133,4.04212 13.65585,13.13517 22.81445,6.52344 8.33301,-1.43866 20.70747,-7.15123 25.05078,-8.44922 -8.2851,11.69695 14.16174,-5.18174 16.83203,6.64258 8.00083,6.06666 14.77281,13.29218 22.5586,18.67968 9.03257,3.07539 20.88228,2.66929 25.96093,-6.48828 13.43648,-10.26141 -5.05457,-21.1144 -12.83984,-27.76953 -11.57912,-8.90079 -23.82327,-18.53853 -38.31445,-21.72656 -17.39062,-1.63119 -35.89368,-0.85751 -51.38477,-10.32227 -12.16127,-4.34159 -24.8993,-15.49148 -18.75781,-29.35156 -1.43907,-7.57884 8.39362,-26.70419 -1.86719,-26.95508 -11.94551,6.11453 -20.13918,21.73546 -35.40234,19.28321 -23.22968,-4.07093 -39.2083,-23.52479 -53.47461,-40.65235 -7.8426,-12.79233 -17.91154,-24.58755 -32.26758,-30.08008 -12.12328,-5.8922 -24.93656,-10.17649 -37.72266,-14.36523 z m 28.23438,49.72852 0.24805,0.19531 -0.24805,-0.19531 z m 279.25391,140.73046 c -5.59416,14.27998 17.15018,33.55535 -1.62891,43.97657 -0.61464,16.79051 -27.91961,16.07026 -27.06055,28.28711 14.68261,10.24305 33.05615,3.90785 49.65625,8.81836 10.25953,-20.27156 -5.16051,-36.7055 -8.98047,-56.76954 -1.79091,-9.53133 -3.21055,-18.53126 -11.98632,-24.3125 z"
       id="path4157"
       inkscape:connector-curvature="0" />
  </g>
</svg>
