<?xml version="1.0" standalone="no"?>
<!DOCTYPE svg PUBLIC "-//W3C//DTD SVG 20010904//EN"
 "http://www.w3.org/TR/2001/REC-SVG-20010904/DTD/svg10.dtd">
<svg version="1.0" xmlns="http://www.w3.org/2000/svg"
 width="620.000000pt" height="620.000000pt" viewBox="0 0 620.000000 620.000000"
 preserveAspectRatio="xMidYMid meet">
<metadata>
Created by potrace 1.11, written by Peter Selinger 2001-2013
</metadata>
<g transform="translate(0.000000,620.000000) scale(0.100000,-0.100000)"
fill="#000000" stroke="none">
<path d="M2689 6168 c-1 -18 -2 -46 -4 -63 -5 -54 -15 -178 -20 -259 -3 -44
-8 -83 -11 -88 -6 -9 -1 -9 388 -10 158 0 291 3 297 6 5 4 8 16 6 27 -2 11 -7
60 -10 107 -3 48 -8 123 -12 167 -3 44 -6 94 -7 110 l-1 30 -312 3 -313 2 -1
-32z"/>
<path d="M1836 5591 c-2 -3 9 -45 25 -93 15 -47 30 -97 33 -110 3 -12 10 -48
16 -78 32 -159 43 -367 27 -526 -7 -68 -10 -84 -22 -144 -2 -14 -7 -41 -10
-60 -3 -19 -10 -48 -15 -65 -5 -16 -17 -55 -26 -85 -9 -30 -34 -98 -54 -151
l-37 -95 1223 0 1223 0 50 101 c44 89 96 219 106 268 2 9 11 45 20 79 24 95
30 160 29 333 -1 126 -6 181 -23 260 -25 113 -29 129 -31 133 -2 1 -3 5 -5 10
-1 4 -5 21 -10 37 -9 34 -49 127 -70 165 l-14 25 -1215 1 c-669 1 -1218 -1
-1220 -5z"/>
<path d="M2529 4035 c-4 0 -15 -110 -25 -260 -3 -49 -8 -93 -11 -97 -2 -5 221
-8 495 -8 l500 0 -4 48 c-10 133 -17 241 -18 275 0 26 -5 37 -16 38 -10 1
-774 4 -921 4z"/>
<path d="M770 3520 c0 -3 -18 -4 -40 -2 l-39 4 23 -48 c53 -111 168 -485 181
-589 1 -11 5 -33 8 -50 4 -16 9 -48 12 -70 3 -23 7 -52 10 -65 3 -14 8 -59 11
-100 3 -41 7 -91 10 -110 5 -47 5 -342 -1 -410 -5 -62 -16 -177 -20 -200 -1
-8 -5 -40 -10 -70 -4 -30 -9 -64 -11 -75 -1 -11 -3 -20 -4 -20 -2 0 -3 -8 -19
-85 -13 -67 -17 -86 -30 -127 -5 -18 -7 -33 -4 -33 3 0 1 -6 -4 -12 -5 -7 -18
-44 -28 -83 -33 -125 -129 -370 -203 -520 l-20 -40 2300 -3 2301 -2 16 22 c9
13 15 26 13 31 -1 4 2 7 7 7 5 0 13 10 17 23 4 12 17 38 28 57 41 67 167 350
181 405 1 6 7 23 14 40 26 63 94 339 107 434 2 19 6 46 9 60 20 115 27 496 12
636 -10 88 -22 175 -33 230 -3 11 -7 35 -10 54 -3 19 -10 45 -15 58 -5 13 -7
23 -4 23 2 0 -1 15 -6 33 -6 17 -12 39 -14 47 -4 18 -44 149 -52 170 -3 8 -7
20 -8 26 -6 28 -82 207 -116 277 l-39 77 -43 1 c-23 1 -45 1 -49 0 -13 -1
-421 -3 -538 -2 -8 0 -116 0 -240 0 -124 0 -232 0 -240 0 -8 0 -116 0 -240 0
-124 0 -232 0 -240 0 -8 0 -116 0 -240 0 -124 0 -232 0 -240 0 -8 0 -116 0
-240 0 -124 0 -229 0 -235 0 -296 5 -385 5 -385 -1 0 -4 -6 -5 -14 -2 -22 9
-306 10 -306 2 0 -4 -6 -5 -14 -2 -22 9 -306 10 -306 2 0 -4 -6 -5 -14 -2 -22
9 -306 10 -306 2 0 -4 -6 -5 -14 -2 -22 9 -306 10 -306 2 0 -4 -6 -5 -14 -2
-19 7 -306 11 -306 4z m3687 -754 c152 -78 148 -286 -6 -367 -164 -85 -352 90
-279 261 50 117 174 164 285 106z m-2330 -125 c7 -1 20 -10 30 -21 16 -17 19
-36 18 -155 l-1 -135 136 0 c183 0 180 3 180 -163 0 -91 -4 -128 -14 -143 -15
-19 -23 -20 -261 -23 l-41 -1 1 -127 c1 -135 -10 -182 -43 -184 -104 -6 -244
-2 -256 7 -26 18 -32 55 -30 182 l1 122 -31 0 c-217 4 -256 6 -268 18 -9 9
-13 50 -13 147 0 172 -8 164 176 165 l135 0 -1 123 c0 135 6 170 36 183 16 7
185 11 246 5z m1908 -293 c80 -42 120 -113 112 -200 -10 -107 -100 -192 -203
-190 -59 2 -105 23 -153 72 -62 64 -73 156 -27 235 24 39 74 85 101 92 5 1 26
6 45 11 39 9 81 3 125 -20z m842 -2 c121 -62 149 -221 55 -319 -60 -64 -138
-84 -212 -57 -146 53 -193 223 -91 327 54 55 63 60 112 70 49 10 88 4 136 -21z
m-430 -413 c102 -48 150 -170 104 -268 -62 -133 -226 -167 -329 -68 -69 67
-86 153 -45 236 25 50 93 108 135 114 12 2 23 5 25 7 8 7 79 -6 110 -21z"/>
<path d="M2336 662 c-3 -5 -21 -8 -41 -5 -34 3 -35 3 -36 -34 -1 -21 -3 -47
-4 -58 -3 -24 -12 -140 -30 -395 -4 -52 -8 -112 -10 -132 l-4 -38 764 0 763 0
-3 58 c-7 92 -15 202 -20 272 -3 36 -8 103 -11 150 -4 74 -7 112 -13 167 -1
10 -143 13 -666 13 -366 -1 -670 2 -675 5 -5 3 -11 1 -14 -3z"/>
</g>
</svg>
