<?xml version="1.0" encoding="UTF-8" standalone="no"?>
<!-- Created with Inkscape (http://www.inkscape.org/) -->

<svg
   xmlns:dc="http://purl.org/dc/elements/1.1/"
   xmlns:cc="http://creativecommons.org/ns#"
   xmlns:rdf="http://www.w3.org/1999/02/22-rdf-syntax-ns#"
   xmlns:svg="http://www.w3.org/2000/svg"
   xmlns="http://www.w3.org/2000/svg"
   xmlns:sodipodi="http://sodipodi.sourceforge.net/DTD/sodipodi-0.dtd"
   xmlns:inkscape="http://www.inkscape.org/namespaces/inkscape"
   style="enable-background:new"
   sodipodi:docname="age_mast_hex.svg"
   inkscape:version="0.91 r13725"
   version="1.1"
   id="svg2"
   viewBox="0 0 103.27108 119.24717"
   height="119.24717"
   width="103.27108">
  <defs
     id="defs4" />
  <sodipodi:namedview
     inkscape:bbox-nodes="true"
     inkscape:snap-bbox="true"
     inkscape:snap-global="false"
     inkscape:snap-nodes="false"
     units="px"
     inkscape:window-maximized="1"
     inkscape:window-y="-8"
     inkscape:window-x="-8"
     inkscape:window-height="1027"
     inkscape:window-width="1920"
     inkscape:object-paths="true"
     inkscape:snap-smooth-nodes="false"
     inkscape:snap-midpoints="true"
     inkscape:object-nodes="true"
     inkscape:snap-intersection-paths="true"
     showgrid="false"
     inkscape:current-layer="layer1"
     inkscape:document-units="px"
     inkscape:cy="45.689123"
     inkscape:cx="15.728071"
     inkscape:zoom="2"
     inkscape:pageshadow="2"
     inkscape:pageopacity="0.0"
     borderopacity="1.0"
     bordercolor="#666666"
     pagecolor="#ffffff"
     id="base"
     inkscape:snap-bbox-midpoints="true"
     inkscape:snap-bbox-edge-midpoints="true"
     showguides="false"
     inkscape:bbox-paths="false"
     fit-margin-top="0"
     fit-margin-left="0"
     fit-margin-right="0"
     fit-margin-bottom="0" />
  <metadata
     id="metadata7">
    <rdf:RDF>
      <cc:Work
         rdf:about="">
        <dc:format>image/svg+xml</dc:format>
        <dc:type
           rdf:resource="http://purl.org/dc/dcmitype/StillImage" />
        <dc:title></dc:title>
      </cc:Work>
    </rdf:RDF>
  </metadata>
  <g
     inkscape:label="Layer 1"
     inkscape:groupmode="layer"
     id="layer1"
     style="display:inline"
     transform="translate(-3482.9758,-331.29411)">
    <path
       sodipodi:type="star"
       style="opacity:1;fill:#ffffff;fill-opacity:1;fill-rule:nonzero;stroke:none;stroke-width:1.20000005;stroke-linecap:round;stroke-linejoin:round;stroke-miterlimit:4;stroke-dasharray:3.6, 3.6;stroke-dashoffset:3.96000004;stroke-opacity:1"
       id="path5830"
       sodipodi:sides="6"
       sodipodi:cx="3534.6113"
       sodipodi:cy="390.91769"
       sodipodi:r1="59.623585"
       sodipodi:r2="51.63554"
       sodipodi:arg1="1.5707963"
       sodipodi:arg2="2.0943951"
       inkscape:flatsided="true"
       inkscape:rounded="0"
       inkscape:randomized="0"
       d="m 3534.6113,450.54128 -51.6355,-29.81179 0,-59.62359 51.6355,-29.81179 51.6356,29.81179 0,59.62359 z" />
    <g
       id="g5832"
       transform="translate(0.52358267,3.1816591)">
      <path
         inkscape:connector-curvature="0"
         id="path10922"
         transform="translate(3488.3203,240.2458)"
         d="m 40.214844,105.30859 -0.476563,6.14844 9.357422,0 -0.419922,-6.14844 -8.460937,0 z m -2.283203,29.47657 -0.382813,4.93945 13.480469,0 -0.337891,-4.93945 -12.759765,0 z m -3.558594,45.91406 -0.695313,8.97266 20.765625,0 -0.613281,-8.97266 -19.457031,0 z"
         style="font-style:normal;font-variant:normal;font-weight:normal;font-stretch:normal;font-size:medium;line-height:125%;font-family:'Titan One';-inkscape-font-specification:'Titan One';letter-spacing:-3px;word-spacing:0px;fill:#0d2400;fill-opacity:1;stroke:none;stroke-width:1px;stroke-linecap:butt;stroke-linejoin:miter;stroke-opacity:1" />
      <path
         inkscape:connector-curvature="0"
         transform="translate(3488.3203,240.2458)"
         id="path10924"
         d="m 13.029297,141.76172 c 1.6741,3.54381 7.739562,18.7876 -1.398438,36.90234 l 62.640625,0 c 11.353,-18.84511 2.16168,-35.56957 1.392578,-36.90234 l -62.634765,0 z m 49.90625,9.89453 a 2.8523828,2.8523828 0 0 1 2.851562,2.85156 2.8523828,2.8523828 0 0 1 -2.851562,2.85157 2.8523828,2.8523828 0 0 1 -2.853516,-2.85157 2.8523828,2.8523828 0 0 1 2.853516,-2.85156 z m -33.404297,2.03711 2.835938,0 a 0.81414502,0.81414502 0 0 1 0.8125,0.81445 l 0,3.47266 3.472656,0 a 0.81414502,0.81414502 0 0 1 0.814453,0.81445 l 0,2.83594 a 0.81414502,0.81414502 0 0 1 -0.814453,0.8125 l -3.472656,0 0,3.47461 a 0.81414502,0.81414502 0 0 1 -0.8125,0.8125 l -2.835938,0 a 0.81414502,0.81414502 0 0 1 -0.814453,-0.8125 l 0,-3.47461 -3.472656,0 a 0.81414502,0.81414502 0 0 1 -0.814453,-0.8125 l 0,-2.83594 a 0.81414502,0.81414502 0 0 1 0.814453,-0.81445 l 3.472656,0 0,-3.47266 a 0.81414502,0.81414502 0 0 1 0.814453,-0.81445 z m 27.699219,3.66602 a 2.8523828,2.8523828 0 0 1 2.851562,2.85351 2.8523828,2.8523828 0 0 1 -2.851562,2.85156 2.8523828,2.8523828 0 0 1 -2.851563,-2.85156 2.8523828,2.8523828 0 0 1 2.851563,-2.85351 z m 11.410156,0 a 2.8523828,2.8523828 0 0 1 2.851563,2.85351 2.8523828,2.8523828 0 0 1 -2.851563,2.85156 2.8523828,2.8523828 0 0 1 -2.853516,-2.85156 2.8523828,2.8523828 0 0 1 2.853516,-2.85351 z m -5.705078,5.70507 a 2.8523828,2.8523828 0 0 1 2.851562,2.85352 2.8523828,2.8523828 0 0 1 -2.851562,2.85156 2.8523828,2.8523828 0 0 1 -2.853516,-2.85156 2.8523828,2.8523828 0 0 1 2.853516,-2.85352 z"
         style="opacity:1;fill:#1d4c00;fill-opacity:1;fill-rule:nonzero;stroke:none;stroke-width:2.03646851;stroke-linecap:round;stroke-linejoin:round;stroke-miterlimit:4;stroke-dasharray:none;stroke-dashoffset:0;stroke-opacity:1" />
      <path
         inkscape:connector-curvature="0"
         id="path10926"
         transform="translate(3488.3203,240.2458)"
         d="m 28.435547,113.49414 c 1.2009,2.96014 3.332634,10.51828 -0.759766,19.25586 l 33.265625,0 c 5.6617,-9.64411 1.455113,-18.00187 0.757813,-19.25586 l -33.263672,0 z"
         style="opacity:1;fill:#308100;fill-opacity:1;fill-rule:nonzero;stroke:none;stroke-width:2.03646851;stroke-linecap:round;stroke-linejoin:round;stroke-miterlimit:4;stroke-dasharray:none;stroke-dashoffset:0;stroke-opacity:1" />
    </g>
  </g>
</svg>
