<?xml version="1.0" encoding="UTF-8" standalone="no"?>
<!-- Created with Inkscape (http://www.inkscape.org/) -->

<svg
   xmlns:dc="http://purl.org/dc/elements/1.1/"
   xmlns:cc="http://creativecommons.org/ns#"
   xmlns:rdf="http://www.w3.org/1999/02/22-rdf-syntax-ns#"
   xmlns:svg="http://www.w3.org/2000/svg"
   xmlns="http://www.w3.org/2000/svg"
   xmlns:sodipodi="http://sodipodi.sourceforge.net/DTD/sodipodi-0.dtd"
   xmlns:inkscape="http://www.inkscape.org/namespaces/inkscape"
   width="70.773369mm"
   height="87.455322mm"
   viewBox="0 0 70.773369 87.455322"
   version="1.1"
   id="svg3213"
   inkscape:version="0.92.2 (5c3e80d, 2017-08-06)"
   sodipodi:docname="age_mast.svg">
  <defs
     id="defs3207" />
  <sodipodi:namedview
     id="base"
     pagecolor="#ffffff"
     bordercolor="#666666"
     borderopacity="1.0"
     inkscape:pageopacity="0.0"
     inkscape:pageshadow="2"
     inkscape:zoom="0.35"
     inkscape:cx="-276.25506"
     inkscape:cy="262.41274"
     inkscape:document-units="mm"
     inkscape:current-layer="layer1"
     showgrid="false"
     fit-margin-top="0"
     fit-margin-left="0"
     fit-margin-right="0"
     fit-margin-bottom="0"
     inkscape:window-width="1920"
     inkscape:window-height="1027"
     inkscape:window-x="-8"
     inkscape:window-y="-8"
     inkscape:window-maximized="1" />
  <metadata
     id="metadata3210">
    <rdf:RDF>
      <cc:Work
         rdf:about="">
        <dc:format>image/svg+xml</dc:format>
        <dc:type
           rdf:resource="http://purl.org/dc/dcmitype/StillImage" />
        <dc:title></dc:title>
      </cc:Work>
    </rdf:RDF>
  </metadata>
  <g
     inkscape:label="Layer 1"
     inkscape:groupmode="layer"
     id="layer1"
     transform="translate(-50.035936,-130.80805)">
    <path
       id="path4232"
       d="m 79.668186,130.80805 -0.49324,6.37514 h 9.69952 l -0.43624,-6.37514 z m -12.21036,8.48606 c 1.24502,3.06951 3.45403,10.90504 -0.7865,19.9607 h 9.71296 1.07984 12.91921 1.23415 9.536854 c 5.86864,-9.99697 1.50752,-18.66043 0.78446,-19.9607 h -8.898494 -4.02172 -10.00736 -1.20417 z m 9.8426,22.0716 -0.39589,5.12021 h 13.97304 l -0.35028,-5.12021 z m -25.8137,7.23214 c 1.73593,3.67491 8.02061,19.47834 -1.45079,38.25508 h 22.85614 0.88384 19.86132 2.90258 18.430144 c 11.76967,-19.53639 2.24112,-36.87488 1.4446,-38.25508 h -24.797074 -0.59582 -14.28088 -0.3565 z m 51.734014,10.25494 a 2.9568772,2.9568772 0 0 1 2.95637,2.95653 2.9568772,2.9568772 0 0 1 -2.95637,2.95754 2.9568772,2.9568772 0 0 1 -2.95759,-2.95754 2.9568772,2.9568772 0 0 1 2.95759,-2.95653 z m -34.628224,2.11298 h 2.93886 a 0.84397054,0.84397054 0 0 1 0.84458,0.84458 v 3.60005 h 3.60005 a 0.84397054,0.84397054 0 0 1 0.84349,0.84347 v 2.93992 a 0.84397054,0.84397054 0 0 1 -0.84349,0.84352 h -3.60005 v 3.60002 a 0.84397054,0.84397054 0 0 1 -0.84458,0.84455 h -2.93886 a 0.84397054,0.84397054 0 0 1 -0.84352,-0.84455 v -3.60002 h -3.60002 a 0.84397054,0.84397054 0 0 1 -0.84458,-0.84352 v -2.93992 a 0.84397054,0.84397054 0 0 1 0.84458,-0.84347 h 3.60002 v -3.60005 a 0.84397054,0.84397054 0 0 1 0.84352,-0.84458 z m 28.71414,3.80109 a 2.9568772,2.9568772 0 0 1 2.956494,2.95643 2.9568772,2.9568772 0 0 1 -2.956494,2.95653 2.9568772,2.9568772 0 0 1 -2.95653,-2.95653 2.9568772,2.9568772 0 0 1 2.95653,-2.95643 z m 11.826994,0 a 2.9568772,2.9568772 0 0 1 2.95753,2.95643 2.9568772,2.9568772 0 0 1 -2.95753,2.95653 2.9568772,2.9568772 0 0 1 -2.95654,-2.95653 2.9568772,2.9568772 0 0 1 2.95654,-2.95643 z m -5.91291,5.91296 a 2.9568772,2.9568772 0 0 1 2.95637,2.95751 2.9568772,2.9568772 0 0 1 -2.95637,2.95654 2.9568772,2.9568772 0 0 1 -2.95759,-2.95654 2.9568772,2.9568772 0 0 1 2.95759,-2.95751 z m -29.608494,18.28411 -0.72017,9.29944 h 21.52541 l -0.63619,-9.29944 z"
       style="font-style:normal;font-variant:normal;font-weight:normal;font-stretch:normal;font-size:medium;line-height:125%;font-family:'Titan One';-inkscape-font-specification:'Titan One';letter-spacing:-3px;word-spacing:0px;display:inline;fill:#ffffff;fill-opacity:1;stroke:none;stroke-width:1.35781646px;stroke-linecap:butt;stroke-linejoin:miter;stroke-opacity:1;enable-background:new"
       inkscape:connector-curvature="0" />
  </g>
</svg>
