<?xml version="1.0" encoding="UTF-8" standalone="no"?>
<!-- Created with Inkscape (http://www.inkscape.org/) -->

<svg
   xmlns:dc="http://purl.org/dc/elements/1.1/"
   xmlns:cc="http://creativecommons.org/ns#"
   xmlns:rdf="http://www.w3.org/1999/02/22-rdf-syntax-ns#"
   xmlns:svg="http://www.w3.org/2000/svg"
   xmlns="http://www.w3.org/2000/svg"
   xmlns:sodipodi="http://sodipodi.sourceforge.net/DTD/sodipodi-0.dtd"
   xmlns:inkscape="http://www.inkscape.org/namespaces/inkscape"
   width="68.255852mm"
   height="127.00002mm"
   viewBox="0 0 68.255852 127.00002"
   version="1.1"
   id="svg3213"
   inkscape:version="0.92.2 (5c3e80d, 2017-08-06)"
   sodipodi:docname="age_waves.svg">
  <defs
     id="defs3207">
    <inkscape:path-effect
       fuse_tolerance="0"
       vertical_pattern="true"
       prop_units="false"
       tang_offset="0"
       normal_offset="0"
       spacing="0"
       scale_y_rel="false"
       prop_scale="1.1690939"
       copytype="single"
       pattern="#path10396"
       is_visible="true"
       id="path-effect4172"
       effect="skeletal" />
    <inkscape:path-effect
       fuse_tolerance="0"
       vertical_pattern="true"
       prop_units="false"
       tang_offset="0"
       normal_offset="0"
       spacing="0"
       scale_y_rel="false"
       prop_scale="1.1690939"
       copytype="single"
       pattern="#path10396"
       is_visible="true"
       id="path-effect4169"
       effect="skeletal" />
    <clipPath
       clipPathUnits="userSpaceOnUse"
       id="clipPath4883">
      <rect
         style="opacity:1;fill:#002416;fill-opacity:1;fill-rule:nonzero;stroke:none;stroke-width:11.28106689;stroke-linecap:square;stroke-linejoin:miter;stroke-miterlimit:4;stroke-dasharray:none;stroke-dashoffset:0;stroke-opacity:1"
         id="rect4885"
         width="257.97488"
         height="480.00018"
         x="7993.2466"
         y="5915.708" />
    </clipPath>
  </defs>
  <sodipodi:namedview
     id="base"
     pagecolor="#ffffff"
     bordercolor="#666666"
     borderopacity="1.0"
     inkscape:pageopacity="0.0"
     inkscape:pageshadow="2"
     inkscape:zoom="0.9899495"
     inkscape:cx="329.09535"
     inkscape:cy="230.55172"
     inkscape:document-units="mm"
     inkscape:current-layer="g4881"
     showgrid="false"
     fit-margin-top="0"
     fit-margin-left="0"
     fit-margin-right="0"
     fit-margin-bottom="0"
     inkscape:window-width="1920"
     inkscape:window-height="1027"
     inkscape:window-x="-8"
     inkscape:window-y="-8"
     inkscape:window-maximized="1" />
  <metadata
     id="metadata3210">
    <rdf:RDF>
      <cc:Work
         rdf:about="">
        <dc:format>image/svg+xml</dc:format>
        <dc:type
           rdf:resource="http://purl.org/dc/dcmitype/StillImage" />
        <dc:title></dc:title>
      </cc:Work>
    </rdf:RDF>
  </metadata>
  <g
     inkscape:label="Layer 1"
     inkscape:groupmode="layer"
     id="layer1"
     transform="translate(-39.867098,-97.008024)">
    <g
       transform="matrix(0.26458333,0,0,0.26458333,-2075.0127,-1468.1897)"
       style="display:inline;enable-background:new"
       id="g4881"
       clip-path="url(#clipPath4883)">
      <rect
         style="opacity:1;fill:#acc68d;fill-opacity:0;fill-rule:nonzero;stroke:none;stroke-width:5.65844011;stroke-linecap:round;stroke-linejoin:round;stroke-miterlimit:4;stroke-dasharray:none;stroke-dashoffset:0;stroke-opacity:1"
         id="rect4859"
         width="1462.6274"
         height="480"
         x="7408.1787"
         y="5915.708" />
      <path
         inkscape:connector-curvature="0"
         id="path4861"
         d="m 7477.1805,6047.4622 h -0.9052 c -3.6916,19.9566 -31.2209,35.0416 -63.9988,35.0699 -6.1711,0 -12.3054,-0.5858 -18.2138,-1.6737 -2.9358,4.917 -4.4612,9.901 -4.5597,14.899 0.1537,4.3652 1.3368,106.8407 3.6305,111.1507 h 387.0137 173.8732 84.128 302.8856 84.1279 173.8733 387.0136 c 2.2322,-4.3112 3.3894,-106.7868 3.4542,-111.1507 0,-5.4113 -1.8042,-10.8108 -5.1931,-16.1237 -7.6261,1.8961 -15.7729,2.8786 -24.0027,2.8984 -32.801,0 -60.3707,-15.0987 -64.0653,-35.0699 h -0.9341 c -3.6931,19.9638 -31.242,35.0516 -64.0322,35.0699 -32.7886,0 -60.3389,-15.1072 -64.0322,-35.0699 h -0.9385 c -3.693,19.9638 -31.2418,35.0516 -64.032,35.0699 -32.7886,0 -60.3345,-15.1072 -64.0275,-35.0699 h -0.953 c -2.7378,14.801 -18.6025,26.9074 -39.9819,32.1942 0,0 0,-0.019 -0.025,-0.023 -7.626,1.8961 -15.7727,2.8788 -24.0023,2.8985 -4.1004,0 -8.1204,-0.2367 -12.0206,-0.6884 -1.9484,-0.2259 -3.8702,-0.5059 -5.7552,-0.8369 0,0 0,0 0,0 -24.5236,-4.3086 -43.2832,-17.3179 -46.2851,-33.5446 h -0.9242 -0.025 c -2.3082,12.4773 -13.9336,23.0516 -30.3342,29.2311 -1.6402,0.618 -3.3287,1.1917 -5.0597,1.7193 -1.7202,0.524 -3.4829,1.0043 -5.2835,1.4341 0,0 -0.025,0 -0.034,0 -0.2647,0.062 -0.5438,0.1072 -0.8101,0.1675 -1.5577,0.357 -3.1298,0.6941 -4.7403,0.9776 -1.8855,0.3319 -3.8061,0.6139 -5.7553,0.8405 -1.9348,0.2248 -3.9,0.3975 -5.8886,0.5136 -1.3533,0.08 -2.7323,0.096 -4.1068,0.1202 -0.6606,0.019 -1.3078,0.057 -1.9723,0.057 -0.072,0 -0.1441,0 -0.2148,0 -1.684,0 -3.349,-0.065 -5.0026,-0.1442 -1.0927,-0.058 -2.1827,-0.1382 -3.268,-0.232 -0.3749,-0.031 -0.7475,-0.061 -1.1199,-0.096 -2.9066,-0.2819 -5.785,-0.6781 -8.609,-1.1981 -0.025,0.019 -0.025,0.042 -0.034,0.061 -24.296,-4.3884 -42.8451,-17.3349 -45.8276,-33.4572 h -0.9387 c -2.7382,14.8016 -18.6028,26.9042 -39.982,32.1905 0,0 0,-0.019 -0.025,-0.019 -7.4857,1.8612 -15.4747,2.8291 -23.5501,2.8832 -0.1504,0 -0.2999,0.019 -0.4523,0.019 -2.0501,0 -4.0793,-0.061 -6.0841,-0.1753 -6.0141,-0.3461 -11.8055,-1.1994 -17.2469,-2.495 0,0 -0.025,0 -0.025,0 -5.434,-1.295 -10.5185,-3.0311 -15.1362,-5.1386 -1.5409,-0.7035 -3.0323,-1.4489 -4.464,-2.2329 0,0 0,0 0,0 -1.428,-0.7823 -2.7966,-1.6032 -4.1068,-2.4608 0,0 0,0 0,0 -1.1606,-0.7599 -2.2546,-1.5582 -3.316,-2.3734 -0.1391,-0.1072 -0.2962,-0.2042 -0.4336,-0.3119 -1.1837,-0.9288 -2.3017,-1.893 -3.3493,-2.887 0,0 0,0 0,0 -0.2505,-0.2376 -0.4581,-0.4929 -0.7007,-0.734 -0.7723,-0.7688 -1.5415,-1.5396 -2.2294,-2.3432 -0.9029,-1.0549 -1.7338,-2.1379 -2.4822,-3.2483 -9e-4,0 7e-4,0 0,0 -0.3738,-0.5545 -0.7289,-1.1174 -1.0623,-1.6849 -7e-4,0 4e-4,0 0,0 -1.6711,-2.8428 -2.8297,-5.8422 -3.4066,-8.9612 v 0 h -0.9338 -0.025 c -2.7684,14.9673 -18.9468,27.1943 -40.6919,32.3844 0,7e-4 0,0 0,0 -5.0403,1.2025 -10.3959,1.9997 -15.9365,2.3924 -2.4236,0.1714 -4.8735,0.2874 -7.3654,0.2892 -2.0552,0 -4.0892,-0.058 -6.0983,-0.1752 -2.0008,-0.115 -3.976,-0.2879 -5.9223,-0.5134 0,-4e-4 0,4e-4 0,0 -1.9461,-0.2258 -3.863,-0.5059 -5.7457,-0.8369 0,-5e-4 0,7e-4 0,0 -0.7744,-0.1362 -1.5149,-0.3184 -2.2773,-0.4716 -1.0946,-0.2201 -2.1999,-0.4225 -3.2683,-0.6772 -1.8115,-0.4316 -3.5873,-0.9106 -5.3171,-1.4376 0,-6e-4 0,4e-4 0,0 -1.7297,-0.5272 -3.4161,-1.1019 -5.055,-1.7194 0,-4e-4 0,6e-4 0,0 -0.4178,-0.1578 -0.8035,-0.3427 -1.2151,-0.5058 -15.7433,-6.2399 -26.8697,-16.5741 -29.1193,-28.7329 h -0.025 -0.9244 c -0.8073,4.3655 -2.756,8.4969 -5.6505,12.2896 -9e-4,0 0,0 0,0 -0.4123,0.5402 -0.8408,1.0749 -1.2911,1.6012 0,0 0,0 0,0 -0.9017,1.0537 -1.8782,2.0799 -2.9252,3.0733 -0.082,0.08 -0.183,0.15 -0.2668,0.2283 -0.9755,0.9114 -1.9963,1.8029 -3.0872,2.6587 -0.6902,0.5413 -1.4482,1.0456 -2.1821,1.5634 -0.5261,0.3711 -1.0148,0.7635 -1.5624,1.1219 0,0 0,0 0,0 -2.6205,1.7148 -5.4886,3.2854 -8.5616,4.6899 -0.2539,0.1176 -0.5293,0.2135 -0.7863,0.3272 -1.3,0.5761 -2.6183,1.142 -3.9875,1.6583 -1.6392,0.6182 -3.3248,1.1914 -5.0551,1.7192 0,0 -0.025,0 -0.025,0 -1.7241,0.5255 -3.4927,1.0032 -5.2979,1.4342 0,0 -0.025,0 -0.025,0 -1.8062,0.4308 -3.6482,0.8138 -5.5265,1.1448 0,0 -0.025,0 -0.025,0 -1.8773,0.3306 -3.7862,0.6106 -5.7268,0.8369 0,0 -0.025,0 -0.029,0 -0.6715,0.078 -1.3656,0.1124 -2.0439,0.1792 -1.2904,0.1253 -2.5742,0.2585 -3.8875,0.3348 -1.9929,0.115 -4.0128,0.1772 -6.0507,0.1791 -0.066,0 -0.1295,0 -0.1952,0 -1.6649,0 -3.3098,-0.066 -4.9453,-0.1441 -1.1135,-0.058 -2.2238,-0.1382 -3.3301,-0.232 -0.3887,-0.031 -0.7761,-0.065 -1.1625,-0.099 -2.8967,-0.2812 -5.7659,-0.676 -8.5807,-1.1943 0,0.019 -0.025,0.038 -0.034,0.057 -24.2883,-4.3904 -42.8312,-17.3341 -45.8134,-33.4531 h -0.9528 c -2.7379,14.801 -18.6027,26.9073 -39.9821,32.1941 0,0 8e-4,-0.019 -0.025,-0.023 -7.6259,1.8961 -15.7728,2.8789 -24.0025,2.8985 -4.1003,0 -8.12,-0.2367 -12.0203,-0.6885 -1.9485,-0.2259 -3.8704,-0.5057 -5.7554,-0.8367 -24.5238,-4.3087 -43.2833,-17.318 -46.2851,-33.5447 h -0.9243 -0.025 c -2.308,12.4774 -13.9334,23.0516 -30.3341,29.2311 -1.6403,0.618 -3.3288,1.1916 -5.0596,1.7192 -1.7203,0.5241 -3.4829,1.0044 -5.2837,1.4341 h -0.034 c -0.2647,0.062 -0.5435,0.1072 -0.8098,0.1675 -1.5578,0.3571 -3.1302,0.694 -4.7408,0.9777 -1.8855,0.3319 -3.8059,0.6139 -5.7552,0.8406 -1.9349,0.2247 -3.9,0.3974 -5.8887,0.5134 -1.3531,0.08 -2.7321,0.096 -4.1066,0.1201 -0.6606,0.019 -1.3078,0.053 -1.9725,0.053 h -0.2147 c -1.6841,0 -3.3489,-0.061 -5.0024,-0.1402 -1.093,-0.058 -2.1827,-0.1383 -3.2683,-0.232 -0.3746,-0.03 -0.7474,-0.061 -1.1197,-0.096 -2.9066,-0.282 -5.7851,-0.6782 -8.609,-1.1981 -0.025,0.019 -0.029,0.038 -0.038,0.057 -24.2963,-4.3881 -42.8456,-17.3348 -45.828,-33.4569 h -0.9386 c -3.693,19.9638 -31.242,35.0514 -64.0321,35.0697 -32.7886,0 -60.3344,-15.1071 -64.0275,-35.0697 h -0.9531 c -3.6912,19.9566 -31.2256,35.0415 -64.0034,35.0697 -32.801,0 -60.3662,-15.0986 -64.0608,-35.0697 z"
         style="display:inline;opacity:1;fill:#108100;fill-opacity:1;fill-rule:nonzero;stroke:none;stroke-width:13.72680092;stroke-linecap:butt;stroke-linejoin:round;stroke-miterlimit:4;stroke-dasharray:none;stroke-dashoffset:0;stroke-opacity:1;enable-background:new" />
      <path
         style="display:inline;opacity:1;fill:#004c21;fill-opacity:1;fill-rule:nonzero;stroke:none;stroke-width:13.72680092;stroke-linecap:butt;stroke-linejoin:round;stroke-miterlimit:4;stroke-dasharray:none;stroke-dashoffset:0;stroke-opacity:1;enable-background:new"
         d="m 7417.1805,6141.8622 h -0.9052 c -3.6916,19.9566 -31.2209,35.0416 -63.9988,35.0699 -6.1711,0 -12.3054,-0.5858 -18.2138,-1.6737 -2.9358,4.917 -4.4612,9.901 -4.5597,14.899 0.1537,4.3652 1.3368,106.8407 3.6305,111.1507 h 387.0137 173.8732 84.128 302.8856 84.1279 173.8733 387.0136 c 2.2322,-4.3112 3.3894,-106.7868 3.4542,-111.1507 0,-5.4113 -1.8042,-10.8107 -5.1931,-16.1237 -7.6261,1.8961 -15.7729,2.8786 -24.0027,2.8984 -32.801,0 -60.3707,-15.0987 -64.0653,-35.0699 h -0.9341 c -3.6931,19.9638 -31.242,35.0516 -64.0322,35.0699 -32.7886,0 -60.3389,-15.1072 -64.0322,-35.0699 h -0.9385 c -3.693,19.9638 -31.2418,35.0516 -64.032,35.0699 -32.7886,0 -60.3345,-15.1072 -64.0275,-35.0699 h -0.953 c -2.7378,14.801 -18.6025,26.9074 -39.9819,32.1942 0,0 0,-0.019 -0.025,-0.023 -7.626,1.8961 -15.7727,2.8788 -24.0023,2.8985 -4.1004,0 -8.1204,-0.2367 -12.0206,-0.6884 -1.9484,-0.2259 -3.8702,-0.5059 -5.7552,-0.8369 0,0 0,0 0,0 -24.5236,-4.3086 -43.2832,-17.3179 -46.2851,-33.5446 h -0.9242 -0.025 c -2.3082,12.4773 -13.9336,23.0516 -30.3342,29.2311 -1.6402,0.618 -3.3287,1.1917 -5.0597,1.7193 -1.7202,0.524 -3.4829,1.0043 -5.2835,1.4341 0,0 -0.025,0 -0.034,0 -0.2647,0.062 -0.5438,0.1072 -0.8101,0.1675 -1.5577,0.357 -3.1298,0.6941 -4.7403,0.9776 -1.8855,0.3319 -3.8061,0.6139 -5.7553,0.8405 -1.9348,0.2248 -3.9,0.3975 -5.8886,0.5136 -1.3533,0.08 -2.7323,0.096 -4.1068,0.1202 -0.6606,0.019 -1.3078,0.057 -1.9723,0.057 -0.072,0 -0.1441,0 -0.2148,0 -1.684,0 -3.349,-0.065 -5.0026,-0.1442 -1.0927,-0.058 -2.1827,-0.1382 -3.268,-0.232 -0.3749,-0.031 -0.7475,-0.061 -1.1199,-0.096 -2.9066,-0.2819 -5.785,-0.6781 -8.609,-1.1981 -0.025,0.019 -0.025,0.042 -0.034,0.061 -24.296,-4.3884 -42.8451,-17.3349 -45.8276,-33.4572 h -0.9387 c -2.7382,14.8017 -18.6028,26.9042 -39.982,32.1905 0,0 0,-0.019 -0.025,-0.019 -7.4857,1.8612 -15.4747,2.8291 -23.5501,2.8832 -0.1504,0 -0.2999,0.019 -0.4523,0.019 -2.0501,0 -4.0793,-0.061 -6.0841,-0.1753 -6.0141,-0.3461 -11.8055,-1.1994 -17.2469,-2.495 0,0 -0.025,0 -0.025,0 -5.434,-1.295 -10.5185,-3.0311 -15.1362,-5.1386 -1.5409,-0.7035 -3.0323,-1.4489 -4.464,-2.2329 0,0 0,0 0,0 -1.428,-0.7823 -2.7966,-1.6032 -4.1068,-2.4608 0,0 0,0 0,0 -1.1606,-0.7599 -2.2546,-1.5582 -3.316,-2.3734 -0.1391,-0.1072 -0.2962,-0.2042 -0.4336,-0.3119 -1.1837,-0.9288 -2.3017,-1.893 -3.3493,-2.887 0,0 0,0 0,0 -0.2505,-0.2376 -0.4581,-0.4929 -0.7007,-0.734 -0.7723,-0.7688 -1.5415,-1.5396 -2.2294,-2.3432 -0.9029,-1.0549 -1.7338,-2.1379 -2.4822,-3.2483 -9e-4,0 7e-4,0 0,0 -0.3738,-0.5545 -0.7289,-1.1174 -1.0623,-1.6849 -7e-4,0 4e-4,0 0,0 -1.6711,-2.8428 -2.8297,-5.8422 -3.4066,-8.9612 v 0 h -0.9338 -0.025 c -2.7684,14.9673 -18.9468,27.1943 -40.6919,32.3844 0,7e-4 0,0 0,0 -5.0403,1.2025 -10.3959,1.9997 -15.9365,2.3924 -2.4236,0.1714 -4.8735,0.2874 -7.3654,0.2892 -2.0552,0 -4.0892,-0.058 -6.0983,-0.1752 -2.0008,-0.115 -3.976,-0.2879 -5.9223,-0.5134 0,-4e-4 0,4e-4 0,0 -1.9461,-0.2258 -3.863,-0.5059 -5.7457,-0.8369 0,-5e-4 0,7e-4 0,0 -0.7744,-0.1362 -1.5149,-0.3184 -2.2773,-0.4716 -1.0946,-0.2201 -2.1999,-0.4225 -3.2683,-0.6772 -1.8115,-0.4316 -3.5873,-0.9106 -5.3171,-1.4376 0,-6e-4 0,4e-4 0,0 -1.7297,-0.5272 -3.4161,-1.1019 -5.055,-1.7194 0,-4e-4 0,6e-4 0,0 -0.4178,-0.1578 -0.8035,-0.3427 -1.2151,-0.5058 -15.7433,-6.2399 -26.8697,-16.5741 -29.1193,-28.7329 h -0.025 -0.9244 c -0.8073,4.3655 -2.756,8.4969 -5.6505,12.2896 -9e-4,0 0,0 0,0 -0.4123,0.5402 -0.8408,1.0749 -1.2911,1.6012 0,0 0,0 0,0 -0.9017,1.0537 -1.8782,2.0799 -2.9252,3.0733 -0.082,0.08 -0.183,0.15 -0.2668,0.2283 -0.9755,0.9114 -1.9963,1.8029 -3.0872,2.6587 -0.6902,0.5413 -1.4482,1.0456 -2.1821,1.5634 -0.5261,0.3711 -1.0148,0.7635 -1.5624,1.1219 0,0 0,0 0,0 -2.6205,1.7148 -5.4886,3.2854 -8.5616,4.6899 -0.2539,0.1176 -0.5293,0.2135 -0.7863,0.3272 -1.3,0.5761 -2.6183,1.142 -3.9875,1.6583 -1.6392,0.6182 -3.3248,1.1914 -5.0551,1.7192 0,0 -0.025,0 -0.025,0 -1.7241,0.5255 -3.4927,1.0032 -5.2979,1.4342 0,0 -0.025,0 -0.025,0 -1.8062,0.4308 -3.6482,0.8138 -5.5265,1.1448 0,0 -0.025,0 -0.025,0 -1.8773,0.3306 -3.7862,0.6106 -5.7268,0.8369 0,0 -0.025,0 -0.029,0 -0.6715,0.078 -1.3656,0.1124 -2.0439,0.1792 -1.2904,0.1253 -2.5742,0.2585 -3.8875,0.3348 -1.9929,0.115 -4.0128,0.1772 -6.0507,0.1791 -0.066,0 -0.1295,0 -0.1952,0 -1.6649,0 -3.3098,-0.066 -4.9453,-0.1441 -1.1135,-0.058 -2.2238,-0.1382 -3.3301,-0.232 -0.3887,-0.031 -0.7761,-0.065 -1.1625,-0.1 -2.8967,-0.2812 -5.7659,-0.676 -8.5807,-1.1943 0,0.019 -0.025,0.038 -0.034,0.057 -24.2883,-4.3904 -42.8312,-17.3341 -45.8134,-33.4531 h -0.9528 c -2.7379,14.801 -18.6027,26.9073 -39.9821,32.1941 0,0 8e-4,-0.019 -0.025,-0.023 -7.6259,1.8961 -15.7728,2.8789 -24.0025,2.8985 -4.1003,0 -8.12,-0.2367 -12.0203,-0.6885 -1.9485,-0.2259 -3.8704,-0.5057 -5.7554,-0.8367 -24.5238,-4.3087 -43.2833,-17.318 -46.2851,-33.5447 h -0.9243 -0.025 c -2.308,12.4774 -13.9334,23.0516 -30.3341,29.2311 -1.6403,0.618 -3.3288,1.1916 -5.0596,1.7192 -1.7203,0.5241 -3.4829,1.0044 -5.2837,1.4341 h -0.034 c -0.2647,0.062 -0.5435,0.1072 -0.8098,0.1675 -1.5578,0.3571 -3.1302,0.694 -4.7408,0.9777 -1.8855,0.3319 -3.8059,0.6139 -5.7552,0.8406 -1.9349,0.2247 -3.9,0.3974 -5.8887,0.5134 -1.3531,0.08 -2.7321,0.096 -4.1066,0.1201 -0.6606,0.019 -1.3078,0.053 -1.9725,0.053 h -0.2147 c -1.6841,0 -3.3489,-0.061 -5.0024,-0.1402 -1.093,-0.058 -2.1827,-0.1383 -3.2683,-0.232 -0.3746,-0.03 -0.7474,-0.061 -1.1197,-0.096 -2.9066,-0.282 -5.7851,-0.6782 -8.609,-1.1981 -0.025,0.019 -0.029,0.038 -0.038,0.057 -24.2963,-4.3881 -42.8456,-17.3348 -45.828,-33.4569 h -0.9386 c -3.693,19.9638 -31.242,35.0514 -64.0321,35.0697 -32.7886,0 -60.3344,-15.1071 -64.0275,-35.0697 h -0.9531 c -3.6912,19.9566 -31.2256,35.0415 -64.0034,35.0697 -32.801,0 -60.3662,-15.0986 -64.0608,-35.0697 z"
         id="path4863"
         inkscape:connector-curvature="0" />
      <path
         inkscape:connector-curvature="0"
         id="path4865"
         d="m 7477.1805,6236.2622 h -0.9052 c -3.6916,19.9566 -31.2209,35.0416 -63.9988,35.0699 -6.1711,0 -12.3054,-0.5858 -18.2138,-1.6737 -2.9358,4.917 -4.4612,9.901 -4.5597,14.899 0.1537,4.3653 1.3368,106.8407 3.6305,111.1507 h 387.0137 173.8732 84.128 302.8856 84.1279 173.8733 387.0136 c 2.2322,-4.3112 3.3894,-106.7868 3.4542,-111.1507 0,-5.4113 -1.8042,-10.8108 -5.1931,-16.1237 -7.6261,1.8961 -15.7729,2.8786 -24.0027,2.8984 -32.801,0 -60.3707,-15.0987 -64.0653,-35.0699 h -0.9341 c -3.6931,19.9638 -31.242,35.0516 -64.0322,35.0699 -32.7886,0 -60.3389,-15.1072 -64.0322,-35.0699 h -0.9385 c -3.693,19.9638 -31.2418,35.0516 -64.032,35.0699 -32.7886,0 -60.3345,-15.1072 -64.0275,-35.0699 h -0.953 c -2.7378,14.801 -18.6025,26.9074 -39.9819,32.1942 0,0 0,-0.019 -0.025,-0.023 -7.626,1.8961 -15.7727,2.8788 -24.0023,2.8985 -4.1004,0 -8.1204,-0.2367 -12.0206,-0.6884 -1.9484,-0.2259 -3.8702,-0.5059 -5.7552,-0.8369 0,0 0,0 0,0 -24.5236,-4.3086 -43.2832,-17.3179 -46.2851,-33.5446 h -0.9242 -0.025 c -2.3082,12.4773 -13.9336,23.0516 -30.3342,29.2311 -1.6402,0.618 -3.3287,1.1917 -5.0597,1.7193 -1.7202,0.524 -3.4829,1.0043 -5.2835,1.4341 0,0 -0.025,0 -0.034,0 -0.2647,0.062 -0.5438,0.1072 -0.8101,0.1675 -1.5577,0.357 -3.1298,0.6941 -4.7403,0.9776 -1.8855,0.3319 -3.8061,0.6139 -5.7553,0.8405 -1.9348,0.2248 -3.9,0.3975 -5.8886,0.5136 -1.3533,0.08 -2.7323,0.096 -4.1068,0.1202 -0.6606,0.019 -1.3078,0.057 -1.9723,0.057 -0.072,0 -0.1441,0 -0.2148,0 -1.684,0 -3.349,-0.065 -5.0026,-0.1442 -1.0927,-0.058 -2.1827,-0.1382 -3.268,-0.232 -0.3749,-0.031 -0.7475,-0.061 -1.1199,-0.096 -2.9066,-0.2819 -5.785,-0.6781 -8.609,-1.1981 -0.025,0.019 -0.025,0.042 -0.034,0.061 -24.296,-4.3883 -42.8451,-17.3349 -45.8276,-33.4572 h -0.9387 c -2.7382,14.8016 -18.6028,26.9042 -39.982,32.1905 0,0 0,-0.019 -0.025,-0.019 -7.4857,1.8612 -15.4747,2.8291 -23.5501,2.8832 -0.1504,0 -0.2999,0.019 -0.4523,0.019 -2.0501,0 -4.0793,-0.061 -6.0841,-0.1753 -6.0141,-0.3461 -11.8055,-1.1994 -17.2469,-2.495 0,0 -0.025,0 -0.025,0 -5.434,-1.295 -10.5185,-3.0311 -15.1362,-5.1386 -1.5409,-0.7035 -3.0323,-1.4489 -4.464,-2.2329 0,0 0,0 0,0 -1.428,-0.7823 -2.7966,-1.6032 -4.1068,-2.4608 0,0 0,0 0,0 -1.1606,-0.7599 -2.2546,-1.5582 -3.316,-2.3734 -0.1391,-0.1072 -0.2962,-0.2042 -0.4336,-0.3119 -1.1837,-0.9288 -2.3017,-1.893 -3.3493,-2.887 0,0 0,0 0,0 -0.2505,-0.2376 -0.4581,-0.4929 -0.7007,-0.734 -0.7723,-0.7688 -1.5415,-1.5396 -2.2294,-2.3432 -0.9029,-1.0549 -1.7338,-2.1379 -2.4822,-3.2483 -9e-4,0 7e-4,0 0,0 -0.3738,-0.5545 -0.7289,-1.1174 -1.0623,-1.6849 -7e-4,0 4e-4,0 0,0 -1.6711,-2.8428 -2.8297,-5.8422 -3.4066,-8.9612 v 0 h -0.9338 -0.025 c -2.7684,14.9673 -18.9468,27.1943 -40.6919,32.3844 0,7e-4 0,0 0,0 -5.0403,1.2025 -10.3959,1.9997 -15.9365,2.3924 -2.4236,0.1714 -4.8735,0.2874 -7.3654,0.2892 -2.0552,0 -4.0892,-0.058 -6.0983,-0.1752 -2.0008,-0.115 -3.976,-0.2879 -5.9223,-0.5134 0,-4e-4 0,4e-4 0,0 -1.9461,-0.2258 -3.863,-0.5059 -5.7457,-0.8369 0,-5e-4 0,7e-4 0,0 -0.7744,-0.1362 -1.5149,-0.3184 -2.2773,-0.4716 -1.0946,-0.2201 -2.1999,-0.4225 -3.2683,-0.6772 -1.8115,-0.4316 -3.5873,-0.9106 -5.3171,-1.4376 0,-6e-4 0,4e-4 0,0 -1.7297,-0.5272 -3.4161,-1.1019 -5.055,-1.7194 0,-4e-4 0,6e-4 0,0 -0.4178,-0.1578 -0.8035,-0.3427 -1.2151,-0.5058 -15.7433,-6.2399 -26.8697,-16.5741 -29.1193,-28.7329 h -0.025 -0.9244 c -0.8073,4.3655 -2.756,8.4969 -5.6505,12.2896 -9e-4,0 0,0 0,0 -0.4123,0.5402 -0.8408,1.0749 -1.2911,1.6012 0,0 0,0 0,0 -0.9017,1.0537 -1.8782,2.0799 -2.9252,3.0733 -0.082,0.08 -0.183,0.15 -0.2668,0.2283 -0.9755,0.9114 -1.9963,1.8029 -3.0872,2.6587 -0.6902,0.5413 -1.4482,1.0456 -2.1821,1.5634 -0.5261,0.3711 -1.0148,0.7635 -1.5624,1.1219 0,0 0,0 0,0 -2.6205,1.7148 -5.4886,3.2854 -8.5616,4.6899 -0.2539,0.1176 -0.5293,0.2135 -0.7863,0.3272 -1.3,0.5761 -2.6183,1.142 -3.9875,1.6583 -1.6392,0.6182 -3.3248,1.1914 -5.0551,1.7192 0,0 -0.025,0 -0.025,0 -1.7241,0.5255 -3.4927,1.0032 -5.2979,1.4342 0,0 -0.025,0 -0.025,0 -1.8062,0.4308 -3.6482,0.8138 -5.5265,1.1448 0,0 -0.025,0 -0.025,0 -1.8773,0.3306 -3.7862,0.6106 -5.7268,0.8369 0,0 -0.025,0 -0.029,0 -0.6715,0.078 -1.3656,0.1124 -2.0439,0.1792 -1.2904,0.1253 -2.5742,0.2585 -3.8875,0.3348 -1.9929,0.115 -4.0128,0.1772 -6.0507,0.1791 -0.066,0 -0.1295,0 -0.1952,0 -1.6649,0 -3.3098,-0.066 -4.9453,-0.1441 -1.1135,-0.058 -2.2238,-0.1382 -3.3301,-0.232 -0.3887,-0.031 -0.7761,-0.065 -1.1625,-0.1 -2.8967,-0.2812 -5.7659,-0.676 -8.5807,-1.1943 0,0.019 -0.025,0.038 -0.034,0.057 -24.2883,-4.3904 -42.8312,-17.3341 -45.8134,-33.4531 h -0.9528 c -2.7379,14.801 -18.6027,26.9073 -39.9821,32.1941 0,0 8e-4,-0.019 -0.025,-0.023 -7.6259,1.8961 -15.7728,2.8789 -24.0025,2.8985 -4.1003,0 -8.12,-0.2367 -12.0203,-0.6885 -1.9485,-0.2259 -3.8704,-0.5057 -5.7554,-0.8367 -24.5238,-4.3087 -43.2833,-17.318 -46.2851,-33.5447 h -0.9243 -0.025 c -2.308,12.4774 -13.9334,23.0516 -30.3341,29.2311 -1.6403,0.618 -3.3288,1.1916 -5.0596,1.7192 -1.7203,0.5241 -3.4829,1.0044 -5.2837,1.4341 h -0.034 c -0.2647,0.062 -0.5435,0.1072 -0.8098,0.1675 -1.5578,0.3571 -3.1302,0.694 -4.7408,0.9777 -1.8855,0.3319 -3.8059,0.6139 -5.7552,0.8406 -1.9349,0.2247 -3.9,0.3974 -5.8887,0.5134 -1.3531,0.08 -2.7321,0.096 -4.1066,0.1201 -0.6606,0.019 -1.3078,0.053 -1.9725,0.053 h -0.2147 c -1.6841,0 -3.3489,-0.061 -5.0024,-0.1402 -1.093,-0.058 -2.1827,-0.1383 -3.2683,-0.232 -0.3746,-0.03 -0.7474,-0.061 -1.1197,-0.096 -2.9066,-0.282 -5.7851,-0.6782 -8.609,-1.1981 -0.025,0.019 -0.029,0.038 -0.038,0.057 -24.2963,-4.3881 -42.8456,-17.3348 -45.828,-33.4569 h -0.9386 c -3.693,19.9638 -31.242,35.0514 -64.0321,35.0697 -32.7886,0 -60.3344,-15.1071 -64.0275,-35.0697 h -0.9531 c -3.6912,19.9566 -31.2256,35.0415 -64.0034,35.0697 -32.801,0 -60.3662,-15.0986 -64.0608,-35.0697 z"
         style="display:inline;opacity:1;fill:#002416;fill-opacity:1;fill-rule:nonzero;stroke:none;stroke-width:13.72680092;stroke-linecap:butt;stroke-linejoin:round;stroke-miterlimit:4;stroke-dasharray:none;stroke-dashoffset:0;stroke-opacity:1;enable-background:new" />
    </g>
  </g>
</svg>
