<?xml version="1.0" encoding="utf-8"?>
<!-- Generator: Adobe Illustrator 22.0.1, SVG Export Plug-In . SVG Version: 6.00 Build 0)  -->
<svg version="1.1"
	 id="svg3213" inkscape:version="0.92.2 (5c3e80d, 2017-08-06)" sodipodi:docname="age_text.svg" xmlns:cc="http://creativecommons.org/ns#" xmlns:dc="http://purl.org/dc/elements/1.1/" xmlns:inkscape="http://www.inkscape.org/namespaces/inkscape" xmlns:rdf="http://www.w3.org/1999/02/22-rdf-syntax-ns#" xmlns:sodipodi="http://sodipodi.sourceforge.net/DTD/sodipodi-0.dtd" xmlns:svg="http://www.w3.org/2000/svg"
	 xmlns="http://www.w3.org/2000/svg" xmlns:xlink="http://www.w3.org/1999/xlink" x="0px" y="0px" viewBox="0 0 147.8 65"
	 style="enable-background:new 0 0 147.8 65;" xml:space="preserve">
<style type="text/css">
	.st0{fill:#002416;}
	.st1{fill:#004C21;}
	.st2{fill:#108100;}
	.st3{fill:#ACC68D;}
</style>
<defs>
	
	
		<inkscape:path-effect  copytype="single" effect="skeletal" fuse_tolerance="0" id="path-effect4172" is_visible="true" normal_offset="0" pattern="#path10396" prop_scale="1.1690939" prop_units="false" scale_y_rel="false" spacing="0" tang_offset="0" vertical_pattern="true">
		</inkscape:path-effect>
	
		<inkscape:path-effect  copytype="single" effect="skeletal" fuse_tolerance="0" id="path-effect4169" is_visible="true" normal_offset="0" pattern="#path10396" prop_scale="1.1690939" prop_units="false" scale_y_rel="false" spacing="0" tang_offset="0" vertical_pattern="true">
		</inkscape:path-effect>
</defs>
<sodipodi:namedview  bordercolor="#666666" borderopacity="1.0" fit-margin-bottom="0" fit-margin-left="0" fit-margin-right="0" fit-margin-top="0" id="base" inkscape:current-layer="layer1" inkscape:cx="38.770137" inkscape:cy="-10.419586" inkscape:document-units="mm" inkscape:pageopacity="0.0" inkscape:pageshadow="2" inkscape:window-height="1027" inkscape:window-maximized="1" inkscape:window-width="1920" inkscape:window-x="-8" inkscape:window-y="-8" inkscape:zoom="1.979899" pagecolor="#ffffff" showgrid="false">
	</sodipodi:namedview>
<g id="g4215" transform="matrix(0.60944734,0,0,0.60944734,4433.2334,2200.579)">
	<path id="path4207" inkscape:connector-curvature="0" class="st0" d="M-7274.2-3536.7v32.6h242.5v-32.6h-2.2v30.4h-238v-30.4
		H-7274.2z"/>
	<path id="path4209" inkscape:connector-curvature="0" class="st1" d="M-7274.2-3557.1v20.4h2.2v-20.4H-7274.2z M-7034-3557.1v20.4
		h2.2v-20.4H-7034z"/>
	<path id="path4211" inkscape:connector-curvature="0" class="st2" d="M-7274.2-3577.6v20.4h2.2v-20.4H-7274.2z M-7034-3577.6v20.4
		h2.2v-20.4H-7034z"/>
	<path id="path4213" inkscape:connector-curvature="0" class="st3" d="M-7274.2-3610.8v1.1v32.1h2.2v-31h238v31h2.2v-33.2H-7274.2z"
		/>
</g>
<g>
	<path class="st3" d="M10.1,18.9c-0.3,0.1-1,0.2-1.9,0.2S6.6,19,6,18.9c-0.6-0.2-0.9-0.4-0.9-0.6c0-0.3,0.5-2,1.6-5.3
		c1.1-3.2,1.7-5.1,1.8-5.6C8.7,7.3,9.1,7.2,10,7.1C11,7,11.9,6.9,13,6.9s1.6,0.2,1.7,0.5c2.3,7.2,3.4,10.8,3.4,10.9
		c0,0.1-0.1,0.2-0.2,0.3c-0.3,0.3-1,0.4-2,0.4c-2.1,0-3.2-0.2-3.3-0.7l-0.1-1.1h-1.7l-0.1,1C10.6,18.6,10.5,18.8,10.1,18.9z
		 M12.1,14l-0.3-3.1h-0.4L11.1,14H12.1z"/>
	<path class="st3" d="M23.8,19c-0.7,0.1-1.5,0.1-2.2,0.1c-0.7,0-1.2,0-1.4-0.1c-0.2-0.1-0.3-0.2-0.3-0.3v-7.4h-2.5
		c-0.1,0-0.2-0.2-0.3-0.5c-0.1-0.3-0.1-0.8-0.1-1.4s0.1-1.2,0.2-1.7c0.1-0.5,0.3-0.8,0.6-0.8h9.8c0.2,0,0.3,0.2,0.4,0.5
		c0.1,0.3,0.1,0.8,0.1,1.4c0,0.6-0.1,1.2-0.2,1.7c-0.1,0.5-0.3,0.8-0.5,0.8h-2.3v7.4C24.9,18.8,24.6,18.9,23.8,19z"/>
	<path class="st3" d="M37,19.2c-0.4,0-0.8,0-1.1-0.1c-0.4-0.1-0.7-0.2-1.1-0.5c-0.4-0.3-0.7-0.6-1-1c-0.6-1-0.9-2.4-0.9-4.3
		c0-1.1,0.2-2,0.5-2.8S34,9,34.5,8.5c0.5-0.5,1-0.8,1.6-1.1c0.6-0.3,1.2-0.5,1.8-0.6c0.6-0.1,1.1-0.1,1.8-0.1c1.4,0,2.5,0.1,3.1,0.4
		s0.9,0.7,0.9,1.3c0,0.5-0.1,1.1-0.3,1.7c-0.2,0.6-0.5,0.9-0.9,0.9c-0.1,0-0.5-0.1-1.2-0.3c-0.7-0.2-1.3-0.3-1.6-0.3
		c-1,0-1.6,0.8-1.6,2.5c0,0.8,0.1,1.5,0.4,1.9c0.2,0.4,0.5,0.6,0.9,0.7V14c0-0.3,0.3-0.5,0.9-0.8c0.6-0.2,1.2-0.4,1.8-0.4
		c0.6,0,1,0,1.2,0.1c0.3,0.1,0.4,0.2,0.5,0.3c0.2,0.2,0.3,0.4,0.3,0.5v4.7c0,0.1-0.3,0.3-1,0.4c-0.6,0.1-1.3,0.1-2,0.1
		c-0.7,0-1.1,0-1.3-0.1c-0.2-0.1-0.3-0.2-0.3-0.5l-0.1-1h-0.1c-0.1,0.5-0.3,0.9-0.6,1.3C38.2,19.1,37.7,19.2,37,19.2z"/>
	<path class="st3" d="M49.7,18.9c-0.3,0.1-1,0.2-1.9,0.2s-1.6-0.1-2.2-0.2c-0.6-0.2-0.9-0.4-0.9-0.6c0-0.3,0.5-2,1.6-5.3
		c1.1-3.2,1.7-5.1,1.8-5.6c0.1-0.1,0.5-0.3,1.5-0.4c0.9-0.1,1.9-0.1,2.9-0.1s1.6,0.2,1.7,0.5c2.3,7.2,3.4,10.8,3.4,10.9
		c0,0.1-0.1,0.2-0.2,0.3c-0.3,0.3-1,0.4-2,0.4c-2.1,0-3.2-0.2-3.3-0.7l-0.1-1.1h-1.7l-0.1,1C50.3,18.6,50.1,18.8,49.7,18.9z
		 M51.7,14l-0.3-3.1h-0.4L50.8,14H51.7z"/>
	<path class="st3" d="M61.4,19.1c-0.3,0-0.7,0-1.3,0s-1,0-1.2-0.1c-0.2-0.1-0.3-0.2-0.3-0.4V7.8c0-0.3,0.4-0.5,1.1-0.6
		c0.7-0.2,1.5-0.2,2.4-0.2S63.6,7,64,7.2c0.4,0.2,0.6,0.4,0.6,0.7l1.2,4.5H66l1.2-4.3c0.1-0.3,0.5-0.6,1.2-0.8s1.5-0.4,2.3-0.4
		s1.5,0.1,1.9,0.2c0.4,0.1,0.6,0.3,0.6,0.5v11c0,0.1-0.3,0.3-1,0.4c-0.7,0.1-1.5,0.1-2.5,0.1c-1,0-1.5-0.2-1.5-0.5
		c0-0.9,0.1-2.5,0.3-4.8h-0.2l-0.9,4.5c0,0.2-0.2,0.3-0.4,0.4c-0.3,0.1-0.6,0.1-1.2,0.1c-0.5,0-0.8,0-1-0.1
		c-0.1-0.1-0.2-0.2-0.2-0.4l-1-4.5h-0.2c0.2,2.4,0.3,4,0.3,4.8C63.7,18.9,62.9,19.1,61.4,19.1z"/>
	<path class="st3" d="M83.8,19.1h-7.7c-0.6,0-1,0-1.2-0.1c-0.2-0.1-0.3-0.2-0.3-0.4V7.7c0-0.3,0.1-0.5,0.4-0.6
		c0.3-0.1,0.8-0.2,1.5-0.2h7.3c0.3,0,0.4,0.4,0.4,1.2c0,0.8-0.1,1.4-0.2,1.8c-0.1,0.4-0.3,0.6-0.4,0.6c-0.8,0-2.1-0.1-4-0.2v1.1
		c1.8-0.1,3-0.1,3.5-0.1c0.3,0,0.5,0.4,0.5,1.1c0,0.7-0.1,1.3-0.2,1.6c-0.1,0.4-0.3,0.6-0.5,0.6l-3.3-0.1v1.1
		c2.1-0.1,3.5-0.2,4.3-0.2c0.3,0,0.4,0.4,0.4,1.2c0,0.8-0.1,1.4-0.2,1.8S83.9,19.1,83.8,19.1z"/>
	<path class="st3" d="M86.7,11.6c-0.4,0-0.6-0.3-0.8-0.8c-0.2-0.6-0.2-1.1-0.3-1.7c0-0.8-0.1-1.7-0.1-2.5c0-0.6,1-0.9,2.9-0.9
		c0.3,0,0.5,0.2,0.6,0.6c0.1,0.4,0.1,1.1,0.1,2.1C89.3,10.6,88.5,11.6,86.7,11.6z"/>
	<path class="st3" d="M99.8,18.4c-0.4,0.3-0.9,0.5-1.5,0.6s-1.5,0.2-2.5,0.2c-1,0-2-0.1-2.9-0.2c-0.9-0.2-1.6-0.3-2-0.5
		s-0.6-0.4-0.6-0.6c0-0.6,0.1-1.3,0.3-2c0.2-0.7,0.4-1,0.7-1c0,0,0.5,0.2,1.5,0.5c1,0.3,1.7,0.5,2.2,0.5c0.5,0,0.8,0,0.9-0.1
		c0.1-0.1,0.2-0.2,0.2-0.4c0-0.2-0.1-0.3-0.4-0.5s-0.6-0.3-1-0.4c-0.4-0.1-0.8-0.3-1.3-0.5c-0.5-0.2-0.9-0.4-1.3-0.7
		c-0.4-0.3-0.7-0.6-1-1.1c-0.3-0.5-0.4-1-0.4-1.6c0-2.5,1.6-3.8,4.8-3.8c1.2,0,2.2,0.1,3.1,0.2s1.5,0.3,1.8,0.5
		c0.4,0.2,0.5,0.4,0.5,0.5c0,0.6-0.1,1.2-0.4,1.9s-0.6,1-0.9,1c0,0-0.2-0.1-0.5-0.2c-0.8-0.3-1.5-0.5-2-0.5c-0.5,0-0.9,0-1.1,0.1
		c-0.2,0.1-0.3,0.2-0.3,0.4c0,0.2,0.1,0.3,0.4,0.5c0.3,0.1,0.6,0.2,1,0.3c0.4,0.1,0.8,0.2,1.3,0.4c0.5,0.2,0.9,0.4,1.3,0.7
		s0.7,0.6,1,1.1s0.4,1.1,0.4,1.7c0,0.7-0.2,1.3-0.6,1.9C100.5,17.8,100.2,18.1,99.8,18.4z"/>
	<path class="st3" d="M115.7,19.1H108c-0.6,0-1,0-1.2-0.1c-0.2-0.1-0.3-0.2-0.3-0.4V7.7c0-0.3,0.1-0.5,0.4-0.6
		c0.3-0.1,0.8-0.2,1.5-0.2h7.3c0.3,0,0.4,0.4,0.4,1.2c0,0.8-0.1,1.4-0.2,1.8c-0.1,0.4-0.3,0.6-0.4,0.6c-0.8,0-2.1-0.1-4-0.2v1.1
		c1.8-0.1,3-0.1,3.5-0.1c0.3,0,0.5,0.4,0.5,1.1c0,0.7-0.1,1.3-0.2,1.6c-0.1,0.4-0.3,0.6-0.5,0.6l-3.3-0.1v1.1
		c2.1-0.1,3.5-0.2,4.3-0.2c0.3,0,0.4,0.4,0.4,1.2c0,0.8-0.1,1.4-0.2,1.8S115.9,19.1,115.7,19.1z"/>
	<path class="st3" d="M121.5,19c-0.7,0.1-1.5,0.1-2.2,0.1s-1.2,0-1.4-0.1c-0.2-0.1-0.3-0.2-0.3-0.4V8.1c0-0.3,0.3-0.5,1-0.8
		c0.7-0.2,1.5-0.4,2.4-0.4c0.3,0,0.5,0,0.7,0c0.4,0.1,0.7,0.3,0.9,0.7l1.7,4.4h0.1v-4c0-0.3,0.3-0.5,1-0.8c0.7-0.2,1.5-0.4,2.4-0.4
		c0.8,0,1.2,0.1,1.4,0.4c0.1,0.2,0.2,0.4,0.2,0.5v10.7c0,0.1-0.4,0.3-1.1,0.4c-0.7,0.1-1.6,0.1-2.4,0.1c-0.9,0-1.4-0.1-1.5-0.3
		l-1.7-4.2h-0.1v4C122.6,18.7,122.2,18.9,121.5,19z"/>
	<path class="st3" d="M136.6,19.1h-4.3c-0.6,0-1,0-1.2-0.1c-0.2-0.1-0.3-0.2-0.3-0.4V7.8c0-0.3,0.1-0.5,0.4-0.6s0.7-0.2,1.4-0.2h4.1
		c2.3,0,3.9,0.4,4.8,1.3c0.9,0.9,1.3,2.4,1.3,4.7c0,2.3-0.5,3.9-1.4,4.8S138.9,19.1,136.6,19.1z M136.5,9.5c-0.3,0-0.5,0-0.6,0.1
		v6.9l0.7,0.1c0.4,0,0.6-0.3,0.8-0.8c0.2-0.5,0.3-1.5,0.3-2.8c0-1.3-0.1-2.3-0.3-2.7C137.2,9.7,136.9,9.5,136.5,9.5z"/>
</g>
<g>
	<path class="st2" d="M10.1,32.5c-0.3,0.1-1,0.2-1.9,0.2S6.6,32.6,6,32.5c-0.6-0.2-0.9-0.4-0.9-0.6c0-0.3,0.5-2,1.6-5.3
		c1.1-3.2,1.7-5.1,1.8-5.6c0.1-0.1,0.5-0.3,1.5-0.4c0.9-0.1,1.9-0.1,2.9-0.1s1.6,0.2,1.7,0.5c2.3,7.2,3.4,10.8,3.4,10.9
		c0,0.1-0.1,0.2-0.2,0.3c-0.3,0.3-1,0.4-2,0.4c-2.1,0-3.2-0.2-3.3-0.7l-0.1-1.1h-1.7l-0.1,1C10.6,32.1,10.5,32.4,10.1,32.5z
		 M12.1,27.6l-0.3-3.1h-0.4l-0.3,3.1H12.1z"/>
	<path class="st2" d="M23.8,32.6c-0.7,0.1-1.5,0.1-2.2,0.1c-0.7,0-1.2,0-1.4-0.1c-0.2-0.1-0.3-0.2-0.3-0.3v-7.4h-2.5
		c-0.1,0-0.2-0.2-0.3-0.5c-0.1-0.3-0.1-0.8-0.1-1.4s0.1-1.2,0.2-1.7c0.1-0.5,0.3-0.8,0.6-0.8h9.8c0.2,0,0.3,0.2,0.4,0.5
		c0.1,0.3,0.1,0.8,0.1,1.4c0,0.6-0.1,1.2-0.2,1.7c-0.1,0.5-0.3,0.8-0.5,0.8h-2.3v7.4C24.9,32.4,24.6,32.5,23.8,32.6z"/>
	<path class="st2" d="M37,32.8c-0.4,0-0.8,0-1.1-0.1c-0.4-0.1-0.7-0.2-1.1-0.5c-0.4-0.3-0.7-0.6-1-1c-0.6-1-0.9-2.4-0.9-4.3
		c0-1.1,0.2-2,0.5-2.8s0.7-1.4,1.1-1.9c0.5-0.5,1-0.8,1.6-1.1c0.6-0.3,1.2-0.5,1.8-0.6c0.6-0.1,1.1-0.1,1.8-0.1
		c1.4,0,2.5,0.1,3.1,0.4s0.9,0.7,0.9,1.3c0,0.5-0.1,1.1-0.3,1.7c-0.2,0.6-0.5,0.9-0.9,0.9c-0.1,0-0.5-0.1-1.2-0.3
		c-0.7-0.2-1.3-0.3-1.6-0.3c-1,0-1.6,0.8-1.6,2.5c0,0.8,0.1,1.5,0.4,1.9c0.2,0.4,0.5,0.6,0.9,0.7v-1.5c0-0.3,0.3-0.5,0.9-0.8
		c0.6-0.2,1.2-0.4,1.8-0.4c0.6,0,1,0,1.2,0.1c0.3,0.1,0.4,0.2,0.5,0.3c0.2,0.2,0.3,0.4,0.3,0.5v4.7c0,0.1-0.3,0.3-1,0.4
		c-0.6,0.1-1.3,0.1-2,0.1c-0.7,0-1.1,0-1.3-0.1c-0.2-0.1-0.3-0.2-0.3-0.5l-0.1-1h-0.1c-0.1,0.5-0.3,0.9-0.6,1.3
		C38.2,32.6,37.7,32.8,37,32.8z"/>
	<path class="st2" d="M49.7,32.5c-0.3,0.1-1,0.2-1.9,0.2s-1.6-0.1-2.2-0.2c-0.6-0.2-0.9-0.4-0.9-0.6c0-0.3,0.5-2,1.6-5.3
		c1.1-3.2,1.7-5.1,1.8-5.6c0.1-0.1,0.5-0.3,1.5-0.4c0.9-0.1,1.9-0.1,2.9-0.1s1.6,0.2,1.7,0.5c2.3,7.2,3.4,10.8,3.4,10.9
		c0,0.1-0.1,0.2-0.2,0.3c-0.3,0.3-1,0.4-2,0.4c-2.1,0-3.2-0.2-3.3-0.7l-0.1-1.1h-1.7l-0.1,1C50.3,32.1,50.1,32.4,49.7,32.5z
		 M51.7,27.6l-0.3-3.1h-0.4l-0.3,3.1H51.7z"/>
	<path class="st2" d="M61.4,32.7c-0.3,0-0.7,0-1.3,0s-1,0-1.2-0.1c-0.2-0.1-0.3-0.2-0.3-0.4V21.4c0-0.3,0.4-0.5,1.1-0.6
		c0.7-0.2,1.5-0.2,2.4-0.2s1.4,0.1,1.8,0.3c0.4,0.2,0.6,0.4,0.6,0.7l1.2,4.5H66l1.2-4.3c0.1-0.3,0.5-0.6,1.2-0.8s1.5-0.4,2.3-0.4
		s1.5,0.1,1.9,0.2c0.4,0.1,0.6,0.3,0.6,0.5v11c0,0.1-0.3,0.3-1,0.4c-0.7,0.1-1.5,0.1-2.5,0.1c-1,0-1.5-0.2-1.5-0.5
		c0-0.9,0.1-2.5,0.3-4.8h-0.2l-0.9,4.5c0,0.2-0.2,0.3-0.4,0.4c-0.3,0.1-0.6,0.1-1.2,0.1c-0.5,0-0.8,0-1-0.1
		c-0.1-0.1-0.2-0.2-0.2-0.4l-1-4.5h-0.2c0.2,2.4,0.3,4,0.3,4.8C63.7,32.5,62.9,32.7,61.4,32.7z"/>
	<path class="st2" d="M83.8,32.7h-7.7c-0.6,0-1,0-1.2-0.1c-0.2-0.1-0.3-0.2-0.3-0.4V21.3c0-0.3,0.1-0.5,0.4-0.6
		c0.3-0.1,0.8-0.2,1.5-0.2h7.3c0.3,0,0.4,0.4,0.4,1.2c0,0.8-0.1,1.4-0.2,1.8c-0.1,0.4-0.3,0.6-0.4,0.6c-0.8,0-2.1-0.1-4-0.2v1.1
		c1.8-0.1,3-0.1,3.5-0.1c0.3,0,0.5,0.4,0.5,1.1c0,0.7-0.1,1.3-0.2,1.6c-0.1,0.4-0.3,0.6-0.5,0.6l-3.3-0.1v1.1
		c2.1-0.1,3.5-0.2,4.3-0.2c0.3,0,0.4,0.4,0.4,1.2c0,0.8-0.1,1.4-0.2,1.8S83.9,32.7,83.8,32.7z"/>
	<path class="st2" d="M86.7,25.2c-0.4,0-0.6-0.3-0.8-0.8c-0.2-0.6-0.2-1.1-0.3-1.7c0-0.8-0.1-1.7-0.1-2.5c0-0.6,1-0.9,2.9-0.9
		c0.3,0,0.5,0.2,0.6,0.6c0.1,0.4,0.1,1.1,0.1,2.1C89.3,24.1,88.5,25.2,86.7,25.2z"/>
	<path class="st2" d="M99.8,32c-0.4,0.3-0.9,0.5-1.5,0.6s-1.5,0.2-2.5,0.2c-1,0-2-0.1-2.9-0.2c-0.9-0.2-1.6-0.3-2-0.5
		s-0.6-0.4-0.6-0.6c0-0.6,0.1-1.3,0.3-2c0.2-0.7,0.4-1,0.7-1c0,0,0.5,0.2,1.5,0.5c1,0.3,1.7,0.5,2.2,0.5c0.5,0,0.8,0,0.9-0.1
		c0.1-0.1,0.2-0.2,0.2-0.4c0-0.2-0.1-0.3-0.4-0.5s-0.6-0.3-1-0.4c-0.4-0.1-0.8-0.3-1.3-0.5c-0.5-0.2-0.9-0.4-1.3-0.7
		c-0.4-0.3-0.7-0.6-1-1.1c-0.3-0.5-0.4-1-0.4-1.6c0-2.5,1.6-3.8,4.8-3.8c1.2,0,2.2,0.1,3.1,0.2s1.5,0.3,1.8,0.5
		c0.4,0.2,0.5,0.4,0.5,0.5c0,0.6-0.1,1.2-0.4,1.9s-0.6,1-0.9,1c0,0-0.2-0.1-0.5-0.2c-0.8-0.3-1.5-0.5-2-0.5c-0.5,0-0.9,0-1.1,0.1
		c-0.2,0.1-0.3,0.2-0.3,0.4c0,0.2,0.1,0.3,0.4,0.5c0.3,0.1,0.6,0.2,1,0.3c0.4,0.1,0.8,0.2,1.3,0.4c0.5,0.2,0.9,0.4,1.3,0.7
		s0.7,0.6,1,1.1s0.4,1.1,0.4,1.7c0,0.7-0.2,1.3-0.6,1.9C100.5,31.4,100.2,31.7,99.8,32z"/>
	<path class="st2" d="M115.7,32.7H108c-0.6,0-1,0-1.2-0.1c-0.2-0.1-0.3-0.2-0.3-0.4V21.3c0-0.3,0.1-0.5,0.4-0.6
		c0.3-0.1,0.8-0.2,1.5-0.2h7.3c0.3,0,0.4,0.4,0.4,1.2c0,0.8-0.1,1.4-0.2,1.8c-0.1,0.4-0.3,0.6-0.4,0.6c-0.8,0-2.1-0.1-4-0.2v1.1
		c1.8-0.1,3-0.1,3.5-0.1c0.3,0,0.5,0.4,0.5,1.1c0,0.7-0.1,1.3-0.2,1.6c-0.1,0.4-0.3,0.6-0.5,0.6l-3.3-0.1v1.1
		c2.1-0.1,3.5-0.2,4.3-0.2c0.3,0,0.4,0.4,0.4,1.2c0,0.8-0.1,1.4-0.2,1.8S115.9,32.7,115.7,32.7z"/>
	<path class="st2" d="M121.5,32.5c-0.7,0.1-1.5,0.1-2.2,0.1s-1.2,0-1.4-0.1c-0.2-0.1-0.3-0.2-0.3-0.4V21.7c0-0.3,0.3-0.5,1-0.8
		c0.7-0.2,1.5-0.4,2.4-0.4c0.3,0,0.5,0,0.7,0c0.4,0.1,0.7,0.3,0.9,0.7l1.7,4.4h0.1v-4c0-0.3,0.3-0.5,1-0.8c0.7-0.2,1.5-0.4,2.4-0.4
		c0.8,0,1.2,0.1,1.4,0.4c0.1,0.2,0.2,0.4,0.2,0.5v10.7c0,0.1-0.4,0.3-1.1,0.4c-0.7,0.1-1.6,0.1-2.4,0.1c-0.9,0-1.4-0.1-1.5-0.3
		l-1.7-4.2h-0.1v4C122.6,32.3,122.2,32.5,121.5,32.5z"/>
	<path class="st2" d="M136.6,32.7h-4.3c-0.6,0-1,0-1.2-0.1c-0.2-0.1-0.3-0.2-0.3-0.4V21.4c0-0.3,0.1-0.5,0.4-0.6s0.7-0.2,1.4-0.2
		h4.1c2.3,0,3.9,0.4,4.8,1.3c0.9,0.9,1.3,2.4,1.3,4.7c0,2.3-0.5,3.9-1.4,4.8S138.9,32.7,136.6,32.7z M136.5,23.1
		c-0.3,0-0.5,0-0.6,0.1v6.9l0.7,0.1c0.4,0,0.6-0.3,0.8-0.8c0.2-0.5,0.3-1.5,0.3-2.8c0-1.3-0.1-2.3-0.3-2.7
		C137.2,23.3,136.9,23.1,136.5,23.1z"/>
</g>
<g>
	<path class="st1" d="M10.1,46.1c-0.3,0.1-1,0.2-1.9,0.2S6.6,46.2,6,46c-0.6-0.2-0.9-0.4-0.9-0.6c0-0.3,0.5-2,1.6-5.3
		c1.1-3.2,1.7-5.1,1.8-5.6c0.1-0.1,0.5-0.3,1.5-0.4c0.9-0.1,1.9-0.1,2.9-0.1s1.6,0.2,1.7,0.5c2.3,7.2,3.4,10.8,3.4,10.9
		s-0.1,0.2-0.2,0.3c-0.3,0.3-1,0.4-2,0.4c-2.1,0-3.2-0.2-3.3-0.7l-0.1-1.1h-1.7l-0.1,1C10.6,45.7,10.5,46,10.1,46.1z M12.1,41.2
		l-0.3-3.1h-0.4l-0.3,3.1H12.1z"/>
	<path class="st1" d="M23.8,46.2c-0.7,0.1-1.5,0.1-2.2,0.1c-0.7,0-1.2,0-1.4-0.1c-0.2-0.1-0.3-0.2-0.3-0.3v-7.4h-2.5
		c-0.1,0-0.2-0.2-0.3-0.5s-0.1-0.8-0.1-1.4c0-0.6,0.1-1.2,0.2-1.7c0.1-0.5,0.3-0.8,0.6-0.8h9.8c0.2,0,0.3,0.2,0.4,0.5
		c0.1,0.3,0.1,0.8,0.1,1.4s-0.1,1.2-0.2,1.7c-0.1,0.5-0.3,0.8-0.5,0.8h-2.3v7.4C24.9,46,24.6,46.1,23.8,46.2z"/>
	<path class="st1" d="M37,46.4c-0.4,0-0.8,0-1.1-0.1s-0.7-0.2-1.1-0.5s-0.7-0.6-1-1c-0.6-1-0.9-2.4-0.9-4.3c0-1.1,0.2-2,0.5-2.8
		s0.7-1.4,1.1-1.9c0.5-0.5,1-0.8,1.6-1.1c0.6-0.3,1.2-0.5,1.8-0.6c0.6-0.1,1.1-0.1,1.8-0.1c1.4,0,2.5,0.1,3.1,0.4s0.9,0.7,0.9,1.3
		c0,0.5-0.1,1.1-0.3,1.7c-0.2,0.6-0.5,0.9-0.9,0.9c-0.1,0-0.5-0.1-1.2-0.3c-0.7-0.2-1.3-0.3-1.6-0.3c-1,0-1.6,0.8-1.6,2.5
		c0,0.8,0.1,1.5,0.4,1.9c0.2,0.4,0.5,0.6,0.9,0.7v-1.5c0-0.3,0.3-0.5,0.9-0.8c0.6-0.2,1.2-0.4,1.8-0.4c0.6,0,1,0,1.2,0.1
		c0.3,0.1,0.4,0.2,0.5,0.3c0.2,0.2,0.3,0.4,0.3,0.5v4.7c0,0.1-0.3,0.3-1,0.4s-1.3,0.1-2,0.1c-0.7,0-1.1,0-1.3-0.1
		c-0.2-0.1-0.3-0.2-0.3-0.5l-0.1-1h-0.1c-0.1,0.5-0.3,0.9-0.6,1.3C38.2,46.2,37.7,46.4,37,46.4z"/>
	<path class="st1" d="M49.7,46.1c-0.3,0.1-1,0.2-1.9,0.2s-1.6-0.1-2.2-0.2c-0.6-0.2-0.9-0.4-0.9-0.6c0-0.3,0.5-2,1.6-5.3
		c1.1-3.2,1.7-5.1,1.8-5.6c0.1-0.1,0.5-0.3,1.5-0.4c0.9-0.1,1.9-0.1,2.9-0.1s1.6,0.2,1.7,0.5c2.3,7.2,3.4,10.8,3.4,10.9
		s-0.1,0.2-0.2,0.3c-0.3,0.3-1,0.4-2,0.4c-2.1,0-3.2-0.2-3.3-0.7l-0.1-1.1h-1.7l-0.1,1C50.3,45.7,50.1,46,49.7,46.1z M51.7,41.2
		l-0.3-3.1h-0.4l-0.3,3.1H51.7z"/>
	<path class="st1" d="M61.4,46.3c-0.3,0-0.7,0-1.3,0s-1,0-1.2-0.1c-0.2-0.1-0.3-0.2-0.3-0.4V35c0-0.3,0.4-0.5,1.1-0.6
		c0.7-0.2,1.5-0.2,2.4-0.2s1.4,0.1,1.8,0.3c0.4,0.2,0.6,0.4,0.6,0.7l1.2,4.5H66l1.2-4.3c0.1-0.3,0.5-0.6,1.2-0.8s1.5-0.4,2.3-0.4
		s1.5,0.1,1.9,0.2c0.4,0.1,0.6,0.3,0.6,0.5v11c0,0.1-0.3,0.3-1,0.4s-1.5,0.1-2.5,0.1c-1,0-1.5-0.2-1.5-0.5c0-0.9,0.1-2.5,0.3-4.8
		h-0.2l-0.9,4.5c0,0.2-0.2,0.3-0.4,0.4c-0.3,0.1-0.6,0.1-1.2,0.1c-0.5,0-0.8,0-1-0.1s-0.2-0.2-0.2-0.4l-1-4.5h-0.2
		c0.2,2.4,0.3,4,0.3,4.8C63.7,46.1,62.9,46.2,61.4,46.3z"/>
	<path class="st1" d="M83.8,46.3h-7.7c-0.6,0-1,0-1.2-0.1c-0.2-0.1-0.3-0.2-0.3-0.4V34.9c0-0.3,0.1-0.5,0.4-0.6
		c0.3-0.1,0.8-0.2,1.5-0.2h7.3c0.3,0,0.4,0.4,0.4,1.2c0,0.8-0.1,1.4-0.2,1.8c-0.1,0.4-0.3,0.6-0.4,0.6c-0.8,0-2.1-0.1-4-0.2v1.1
		c1.8-0.1,3-0.1,3.5-0.1c0.3,0,0.5,0.4,0.5,1.1c0,0.7-0.1,1.3-0.2,1.6s-0.3,0.6-0.5,0.6l-3.3-0.1v1.1c2.1-0.1,3.5-0.2,4.3-0.2
		c0.3,0,0.4,0.4,0.4,1.2c0,0.8-0.1,1.4-0.2,1.8C84.1,46.1,83.9,46.3,83.8,46.3z"/>
	<path class="st1" d="M86.7,38.8c-0.4,0-0.6-0.3-0.8-0.8c-0.2-0.6-0.2-1.1-0.3-1.7c0-0.8-0.1-1.7-0.1-2.5c0-0.6,1-0.9,2.9-0.9
		c0.3,0,0.5,0.2,0.6,0.6c0.1,0.4,0.1,1.1,0.1,2.1C89.3,37.7,88.5,38.8,86.7,38.8z"/>
	<path class="st1" d="M99.8,45.6c-0.4,0.3-0.9,0.5-1.5,0.6c-0.6,0.2-1.5,0.2-2.5,0.2c-1,0-2-0.1-2.9-0.2c-0.9-0.2-1.6-0.3-2-0.5
		s-0.6-0.4-0.6-0.6c0-0.6,0.1-1.3,0.3-2s0.4-1,0.7-1c0,0,0.5,0.2,1.5,0.5c1,0.3,1.7,0.5,2.2,0.5c0.5,0,0.8,0,0.9-0.1
		c0.1-0.1,0.2-0.2,0.2-0.4c0-0.2-0.1-0.3-0.4-0.5c-0.3-0.1-0.6-0.3-1-0.4c-0.4-0.1-0.8-0.3-1.3-0.5s-0.9-0.4-1.3-0.7
		c-0.4-0.3-0.7-0.6-1-1.1c-0.3-0.5-0.4-1-0.4-1.6c0-2.5,1.6-3.8,4.8-3.8c1.2,0,2.2,0.1,3.1,0.2c0.9,0.1,1.5,0.3,1.8,0.5
		c0.4,0.2,0.5,0.4,0.5,0.5c0,0.6-0.1,1.2-0.4,1.9s-0.6,1-0.9,1c0,0-0.2-0.1-0.5-0.2c-0.8-0.3-1.5-0.5-2-0.5c-0.5,0-0.9,0-1.1,0.1
		c-0.2,0.1-0.3,0.2-0.3,0.4s0.1,0.3,0.4,0.5s0.6,0.2,1,0.3c0.4,0.1,0.8,0.2,1.3,0.4s0.9,0.4,1.3,0.7s0.7,0.6,1,1.1s0.4,1.1,0.4,1.7
		c0,0.7-0.2,1.3-0.6,1.9C100.5,45,100.2,45.3,99.8,45.6z"/>
	<path class="st1" d="M115.7,46.3H108c-0.6,0-1,0-1.2-0.1c-0.2-0.1-0.3-0.2-0.3-0.4V34.9c0-0.3,0.1-0.5,0.4-0.6
		c0.3-0.1,0.8-0.2,1.5-0.2h7.3c0.3,0,0.4,0.4,0.4,1.2c0,0.8-0.1,1.4-0.2,1.8c-0.1,0.4-0.3,0.6-0.4,0.6c-0.8,0-2.1-0.1-4-0.2v1.1
		c1.8-0.1,3-0.1,3.5-0.1c0.3,0,0.5,0.4,0.5,1.1c0,0.7-0.1,1.3-0.2,1.6s-0.3,0.6-0.5,0.6l-3.3-0.1v1.1c2.1-0.1,3.5-0.2,4.3-0.2
		c0.3,0,0.4,0.4,0.4,1.2c0,0.8-0.1,1.4-0.2,1.8C116,46.1,115.9,46.3,115.7,46.3z"/>
	<path class="st1" d="M121.5,46.1c-0.7,0.1-1.5,0.1-2.2,0.1s-1.2,0-1.4-0.1c-0.2-0.1-0.3-0.2-0.3-0.4V35.3c0-0.3,0.3-0.5,1-0.8
		c0.7-0.2,1.5-0.4,2.4-0.4c0.3,0,0.5,0,0.7,0c0.4,0.1,0.7,0.3,0.9,0.7l1.7,4.4h0.1v-4c0-0.3,0.3-0.5,1-0.8c0.7-0.2,1.5-0.4,2.4-0.4
		c0.8,0,1.2,0.1,1.4,0.4c0.1,0.2,0.2,0.4,0.2,0.5v10.7c0,0.1-0.4,0.3-1.1,0.4s-1.6,0.1-2.4,0.1c-0.9,0-1.4-0.1-1.5-0.3l-1.7-4.2
		h-0.1v4C122.6,45.9,122.2,46,121.5,46.1z"/>
	<path class="st1" d="M136.6,46.3h-4.3c-0.6,0-1,0-1.2-0.1c-0.2-0.1-0.3-0.2-0.3-0.4V34.9c0-0.3,0.1-0.5,0.4-0.6
		c0.3-0.1,0.7-0.2,1.4-0.2h4.1c2.3,0,3.9,0.4,4.8,1.3c0.9,0.9,1.3,2.4,1.3,4.7c0,2.3-0.5,3.9-1.4,4.8S138.9,46.3,136.6,46.3z
		 M136.5,36.7c-0.3,0-0.5,0-0.6,0.1v6.9l0.7,0.1c0.4,0,0.6-0.3,0.8-0.8s0.3-1.5,0.3-2.8s-0.1-2.3-0.3-2.7
		C137.2,36.9,136.9,36.7,136.5,36.7z"/>
</g>
<g>
	<path class="st0" d="M10.1,59.7c-0.3,0.1-1,0.2-1.9,0.2S6.6,59.8,6,59.6c-0.6-0.2-0.9-0.4-0.9-0.6c0-0.3,0.5-2,1.6-5.3
		c1.1-3.2,1.7-5.1,1.8-5.6c0.1-0.1,0.5-0.3,1.5-0.4c0.9-0.1,1.9-0.1,2.9-0.1s1.6,0.2,1.7,0.5c2.3,7.2,3.4,10.8,3.4,10.9
		c0,0.1-0.1,0.2-0.2,0.3c-0.3,0.3-1,0.4-2,0.4c-2.1,0-3.2-0.2-3.3-0.7L12.5,58h-1.7l-0.1,1C10.6,59.3,10.5,59.6,10.1,59.7z
		 M12.1,54.8l-0.3-3.1h-0.4l-0.3,3.1H12.1z"/>
	<path class="st0" d="M23.8,59.8c-0.7,0.1-1.5,0.1-2.2,0.1c-0.7,0-1.2,0-1.4-0.1c-0.2-0.1-0.3-0.2-0.3-0.3v-7.4h-2.5
		c-0.1,0-0.2-0.2-0.3-0.5c-0.1-0.3-0.1-0.8-0.1-1.4c0-0.6,0.1-1.2,0.2-1.7c0.1-0.5,0.3-0.8,0.6-0.8h9.8c0.2,0,0.3,0.2,0.4,0.5
		c0.1,0.3,0.1,0.8,0.1,1.4c0,0.6-0.1,1.2-0.2,1.7c-0.1,0.5-0.3,0.8-0.5,0.8h-2.3v7.4C24.9,59.6,24.6,59.7,23.8,59.8z"/>
	<path class="st0" d="M37,60c-0.4,0-0.8,0-1.1-0.1c-0.4-0.1-0.7-0.2-1.1-0.5c-0.4-0.3-0.7-0.6-1-1c-0.6-1-0.9-2.4-0.9-4.3
		c0-1.1,0.2-2,0.5-2.8s0.7-1.4,1.1-1.9s1-0.8,1.6-1.1c0.6-0.3,1.2-0.5,1.8-0.6s1.1-0.1,1.8-0.1c1.4,0,2.5,0.1,3.1,0.4
		s0.9,0.7,0.9,1.3c0,0.5-0.1,1.1-0.3,1.7c-0.2,0.6-0.5,0.9-0.9,0.9c-0.1,0-0.5-0.1-1.2-0.3c-0.7-0.2-1.3-0.3-1.6-0.3
		c-1,0-1.6,0.8-1.6,2.5c0,0.8,0.1,1.5,0.4,1.9c0.2,0.4,0.5,0.6,0.9,0.7v-1.5c0-0.3,0.3-0.5,0.9-0.8s1.2-0.4,1.8-0.4
		c0.6,0,1,0,1.2,0.1c0.3,0.1,0.4,0.2,0.5,0.3c0.2,0.2,0.3,0.4,0.3,0.5v4.7c0,0.1-0.3,0.3-1,0.4c-0.6,0.1-1.3,0.1-2,0.1
		c-0.7,0-1.1,0-1.3-0.1c-0.2-0.1-0.3-0.2-0.3-0.5l-0.1-1h-0.1c-0.1,0.5-0.3,0.9-0.6,1.3C38.2,59.8,37.7,60,37,60z"/>
	<path class="st0" d="M49.7,59.7c-0.3,0.1-1,0.2-1.9,0.2s-1.6-0.1-2.2-0.2c-0.6-0.2-0.9-0.4-0.9-0.6c0-0.3,0.5-2,1.6-5.3
		c1.1-3.2,1.7-5.1,1.8-5.6c0.1-0.1,0.5-0.3,1.5-0.4c0.9-0.1,1.9-0.1,2.9-0.1s1.6,0.2,1.7,0.5c2.3,7.2,3.4,10.8,3.4,10.9
		c0,0.1-0.1,0.2-0.2,0.3c-0.3,0.3-1,0.4-2,0.4c-2.1,0-3.2-0.2-3.3-0.7L52.1,58h-1.7l-0.1,1C50.3,59.3,50.1,59.6,49.7,59.7z
		 M51.7,54.8l-0.3-3.1h-0.4l-0.3,3.1H51.7z"/>
	<path class="st0" d="M61.4,59.9c-0.3,0-0.7,0-1.3,0s-1,0-1.2-0.1c-0.2-0.1-0.3-0.2-0.3-0.4V48.6c0-0.3,0.4-0.5,1.1-0.6
		c0.7-0.2,1.5-0.2,2.4-0.2s1.4,0.1,1.8,0.3c0.4,0.2,0.6,0.4,0.6,0.7l1.2,4.5H66l1.2-4.3c0.1-0.3,0.5-0.6,1.2-0.8s1.5-0.4,2.3-0.4
		s1.5,0.1,1.9,0.2c0.4,0.1,0.6,0.3,0.6,0.5v11c0,0.1-0.3,0.3-1,0.4c-0.7,0.1-1.5,0.1-2.5,0.1c-1,0-1.5-0.2-1.5-0.5
		c0-0.9,0.1-2.5,0.3-4.8h-0.2L67.3,59c0,0.2-0.2,0.3-0.4,0.4s-0.6,0.1-1.2,0.1c-0.5,0-0.8,0-1-0.1c-0.1-0.1-0.2-0.2-0.2-0.4l-1-4.5
		h-0.2c0.2,2.4,0.3,4,0.3,4.8C63.7,59.7,62.9,59.8,61.4,59.9z"/>
	<path class="st0" d="M83.8,59.9h-7.7c-0.6,0-1,0-1.2-0.1c-0.2-0.1-0.3-0.2-0.3-0.4V48.5c0-0.3,0.1-0.5,0.4-0.6
		c0.3-0.1,0.8-0.2,1.5-0.2h7.3c0.3,0,0.4,0.4,0.4,1.2s-0.1,1.4-0.2,1.8s-0.3,0.6-0.4,0.6c-0.8,0-2.1-0.1-4-0.2v1.1
		c1.8-0.1,3-0.1,3.5-0.1c0.3,0,0.5,0.4,0.5,1.1s-0.1,1.3-0.2,1.6c-0.1,0.4-0.3,0.6-0.5,0.6l-3.3-0.1v1.1c2.1-0.1,3.5-0.2,4.3-0.2
		c0.3,0,0.4,0.4,0.4,1.2s-0.1,1.4-0.2,1.8C84.1,59.7,83.9,59.9,83.8,59.9z"/>
	<path class="st0" d="M86.7,52.4c-0.4,0-0.6-0.3-0.8-0.8c-0.2-0.6-0.2-1.1-0.3-1.7c0-0.8-0.1-1.7-0.1-2.5c0-0.6,1-0.9,2.9-0.9
		c0.3,0,0.5,0.2,0.6,0.6c0.1,0.4,0.1,1.1,0.1,2.1C89.3,51.3,88.5,52.4,86.7,52.4z"/>
	<path class="st0" d="M99.8,59.1c-0.4,0.3-0.9,0.5-1.5,0.6c-0.6,0.2-1.5,0.2-2.5,0.2c-1,0-2-0.1-2.9-0.2s-1.6-0.3-2-0.5
		s-0.6-0.4-0.6-0.6c0-0.6,0.1-1.3,0.3-2c0.2-0.7,0.4-1,0.7-1c0,0,0.5,0.2,1.5,0.5c1,0.3,1.7,0.5,2.2,0.5c0.5,0,0.8,0,0.9-0.1
		c0.1-0.1,0.2-0.2,0.2-0.4s-0.1-0.3-0.4-0.5c-0.3-0.1-0.6-0.3-1-0.4c-0.4-0.1-0.8-0.3-1.3-0.5c-0.5-0.2-0.9-0.4-1.3-0.7
		c-0.4-0.3-0.7-0.6-1-1.1c-0.3-0.5-0.4-1-0.4-1.6c0-2.5,1.6-3.8,4.8-3.8c1.2,0,2.2,0.1,3.1,0.2c0.9,0.1,1.5,0.3,1.8,0.5
		c0.4,0.2,0.5,0.4,0.5,0.5c0,0.6-0.1,1.2-0.4,1.9s-0.6,1-0.9,1c0,0-0.2-0.1-0.5-0.2c-0.8-0.3-1.5-0.5-2-0.5c-0.5,0-0.9,0-1.1,0.1
		c-0.2,0.1-0.3,0.2-0.3,0.4c0,0.2,0.1,0.3,0.4,0.5c0.3,0.1,0.6,0.2,1,0.3c0.4,0.1,0.8,0.2,1.3,0.4c0.5,0.2,0.9,0.4,1.3,0.7
		s0.7,0.6,1,1.1s0.4,1.1,0.4,1.7c0,0.7-0.2,1.3-0.6,1.9C100.5,58.6,100.2,58.9,99.8,59.1z"/>
	<path class="st0" d="M115.7,59.9H108c-0.6,0-1,0-1.2-0.1c-0.2-0.1-0.3-0.2-0.3-0.4V48.5c0-0.3,0.1-0.5,0.4-0.6
		c0.3-0.1,0.8-0.2,1.5-0.2h7.3c0.3,0,0.4,0.4,0.4,1.2s-0.1,1.4-0.2,1.8s-0.3,0.6-0.4,0.6c-0.8,0-2.1-0.1-4-0.2v1.1
		c1.8-0.1,3-0.1,3.5-0.1c0.3,0,0.5,0.4,0.5,1.1s-0.1,1.3-0.2,1.6c-0.1,0.4-0.3,0.6-0.5,0.6l-3.3-0.1v1.1c2.1-0.1,3.5-0.2,4.3-0.2
		c0.3,0,0.4,0.4,0.4,1.2s-0.1,1.4-0.2,1.8C116,59.7,115.9,59.9,115.7,59.9z"/>
	<path class="st0" d="M121.5,59.7c-0.7,0.1-1.5,0.1-2.2,0.1s-1.2,0-1.4-0.1c-0.2-0.1-0.3-0.2-0.3-0.4V48.8c0-0.3,0.3-0.5,1-0.8
		c0.7-0.2,1.5-0.4,2.4-0.4c0.3,0,0.5,0,0.7,0c0.4,0.1,0.7,0.3,0.9,0.7l1.7,4.4h0.1v-4c0-0.3,0.3-0.5,1-0.8c0.7-0.2,1.5-0.4,2.4-0.4
		c0.8,0,1.2,0.1,1.4,0.4c0.1,0.2,0.2,0.4,0.2,0.5v10.7c0,0.1-0.4,0.3-1.1,0.4c-0.7,0.1-1.6,0.1-2.4,0.1c-0.9,0-1.4-0.1-1.5-0.3
		l-1.7-4.2h-0.1v4C122.6,59.5,122.2,59.6,121.5,59.7z"/>
	<path class="st0" d="M136.6,59.9h-4.3c-0.6,0-1,0-1.2-0.1c-0.2-0.1-0.3-0.2-0.3-0.4V48.5c0-0.3,0.1-0.5,0.4-0.6
		c0.3-0.1,0.7-0.2,1.4-0.2h4.1c2.3,0,3.9,0.4,4.8,1.3c0.9,0.9,1.3,2.4,1.3,4.7s-0.5,3.9-1.4,4.8S138.9,59.9,136.6,59.9z M136.5,50.2
		c-0.3,0-0.5,0-0.6,0.1v6.9l0.7,0.1c0.4,0,0.6-0.3,0.8-0.8c0.2-0.5,0.3-1.5,0.3-2.8c0-1.3-0.1-2.3-0.3-2.7
		C137.2,50.5,136.9,50.2,136.5,50.2z"/>
</g>
</svg>
