<?xml version="1.0" encoding="utf-8"?>
<!-- Generator: Adobe Illustrator 22.0.1, SVG Export Plug-In . SVG Version: 6.00 Build 0)  -->
<svg version="1.1"
	 id="svg3213" inkscape:version="0.92.2 (5c3e80d, 2017-08-06)" sodipodi:docname="age_text.svg" xmlns:cc="http://creativecommons.org/ns#" xmlns:dc="http://purl.org/dc/elements/1.1/" xmlns:inkscape="http://www.inkscape.org/namespaces/inkscape" xmlns:rdf="http://www.w3.org/1999/02/22-rdf-syntax-ns#" xmlns:sodipodi="http://sodipodi.sourceforge.net/DTD/sodipodi-0.dtd" xmlns:svg="http://www.w3.org/2000/svg"
	 xmlns="http://www.w3.org/2000/svg" xmlns:xlink="http://www.w3.org/1999/xlink" x="0px" y="0px" viewBox="0 0 147.8 65"
	 style="enable-background:new 0 0 147.8 65;" xml:space="preserve">
<style type="text/css">
	.st0{fill:#002416;}
	.st1{fill:#004C21;}
	.st2{fill:#108100;}
	.st3{fill:#ACC68D;}
</style>
<defs>
	
	
		<inkscape:path-effect  copytype="single" effect="skeletal" fuse_tolerance="0" id="path-effect4172" is_visible="true" normal_offset="0" pattern="#path10396" prop_scale="1.1690939" prop_units="false" scale_y_rel="false" spacing="0" tang_offset="0" vertical_pattern="true">
		</inkscape:path-effect>
	
		<inkscape:path-effect  copytype="single" effect="skeletal" fuse_tolerance="0" id="path-effect4169" is_visible="true" normal_offset="0" pattern="#path10396" prop_scale="1.1690939" prop_units="false" scale_y_rel="false" spacing="0" tang_offset="0" vertical_pattern="true">
		</inkscape:path-effect>
</defs>
<sodipodi:namedview  bordercolor="#666666" borderopacity="1.0" fit-margin-bottom="0" fit-margin-left="0" fit-margin-right="0" fit-margin-top="0" id="base" inkscape:current-layer="layer1" inkscape:cx="38.770137" inkscape:cy="-10.419586" inkscape:document-units="mm" inkscape:pageopacity="0.0" inkscape:pageshadow="2" inkscape:window-height="1027" inkscape:window-maximized="1" inkscape:window-width="1920" inkscape:window-x="-8" inkscape:window-y="-8" inkscape:zoom="1.979899" pagecolor="#ffffff" showgrid="false">
	</sodipodi:namedview>
<g id="g4215" transform="matrix(0.60944734,0,0,0.60944734,4433.2334,2200.579)">
	<path id="path4207" inkscape:connector-curvature="0" class="st0" d="M-7274.2-3536.7v32.6h242.5v-32.6h-2.2v30.4h-238v-30.4
		H-7274.2z"/>
	<path id="path4209" inkscape:connector-curvature="0" class="st1" d="M-7274.2-3557.1v20.4h2.2v-20.4H-7274.2z M-7034-3557.1v20.4
		h2.2v-20.4H-7034z"/>
	<path id="path4211" inkscape:connector-curvature="0" class="st2" d="M-7274.2-3577.6v20.4h2.2v-20.4H-7274.2z M-7034-3577.6v20.4
		h2.2v-20.4H-7034z"/>
	<path id="path4213" inkscape:connector-curvature="0" class="st3" d="M-7274.2-3610.8v1.1v32.1h2.2v-31h238v31h2.2v-33.2H-7274.2z"
		/>
</g>
<g>
	<g>
		<path class="st3" d="M10.1,18.5c-0.3,0.1-1,0.2-1.9,0.2S6.6,18.7,6,18.5c-0.6-0.2-0.9-0.4-0.9-0.6c0-0.3,0.5-2,1.6-5.3
			c1.1-3.2,1.7-5.1,1.8-5.6C8.7,6.9,9.1,6.8,10,6.7C11,6.6,11.9,6.6,13,6.6s1.6,0.2,1.7,0.5c2.3,7.2,3.4,10.8,3.4,10.9
			c0,0.1-0.1,0.2-0.2,0.3c-0.3,0.3-1,0.4-2,0.4c-2.1,0-3.2-0.2-3.3-0.7l-0.1-1.1h-1.7l-0.1,1C10.6,18.2,10.5,18.4,10.1,18.5z
			 M12.1,13.6l-0.3-3.1h-0.4l-0.3,3.1H12.1z"/>
		<path class="st3" d="M23.8,18.6c-0.7,0.1-1.5,0.1-2.2,0.1c-0.7,0-1.2,0-1.4-0.1c-0.2-0.1-0.3-0.2-0.3-0.3V11h-2.5
			c-0.1,0-0.2-0.2-0.3-0.5c-0.1-0.3-0.1-0.8-0.1-1.4s0.1-1.2,0.2-1.7c0.1-0.5,0.3-0.8,0.6-0.8h9.8c0.2,0,0.3,0.2,0.4,0.5
			c0.1,0.3,0.1,0.8,0.1,1.4c0,0.6-0.1,1.2-0.2,1.7c-0.1,0.5-0.3,0.8-0.5,0.8h-2.3v7.4C24.9,18.5,24.6,18.6,23.8,18.6z"/>
		<path class="st3" d="M37,18.9c-0.4,0-0.8,0-1.1-0.1c-0.4-0.1-0.7-0.2-1.1-0.5c-0.4-0.3-0.7-0.6-1-1c-0.6-1-0.9-2.4-0.9-4.3
			c0-1.1,0.2-2,0.5-2.8s0.7-1.4,1.1-1.9c0.5-0.5,1-0.8,1.6-1.1c0.6-0.3,1.2-0.5,1.8-0.6c0.6-0.1,1.1-0.1,1.8-0.1
			c1.4,0,2.5,0.1,3.1,0.4s0.9,0.7,0.9,1.3c0,0.5-0.1,1.1-0.3,1.7c-0.2,0.6-0.5,0.9-0.9,0.9c-0.1,0-0.5-0.1-1.2-0.3
			c-0.7-0.2-1.3-0.3-1.6-0.3c-1,0-1.6,0.8-1.6,2.5c0,0.8,0.1,1.5,0.4,1.9c0.2,0.4,0.5,0.6,0.9,0.7v-1.5c0-0.3,0.3-0.5,0.9-0.8
			c0.6-0.2,1.2-0.4,1.8-0.4c0.6,0,1,0,1.2,0.1c0.3,0.1,0.4,0.2,0.5,0.3c0.2,0.2,0.3,0.4,0.3,0.5v4.7c0,0.1-0.3,0.3-1,0.4
			c-0.6,0.1-1.3,0.1-2,0.1c-0.7,0-1.1,0-1.3-0.1c-0.2-0.1-0.3-0.2-0.3-0.5l-0.1-1h-0.1c-0.1,0.5-0.3,0.9-0.6,1.3
			C38.2,18.7,37.7,18.9,37,18.9z"/>
		<path class="st3" d="M49.7,18.5c-0.3,0.1-1,0.2-1.9,0.2s-1.6-0.1-2.2-0.2c-0.6-0.2-0.9-0.4-0.9-0.6c0-0.3,0.5-2,1.6-5.3
			c1.1-3.2,1.7-5.1,1.8-5.6c0.1-0.1,0.5-0.3,1.5-0.4c0.9-0.1,1.9-0.1,2.9-0.1s1.6,0.2,1.7,0.5c2.3,7.2,3.4,10.8,3.4,10.9
			c0,0.1-0.1,0.2-0.2,0.3c-0.3,0.3-1,0.4-2,0.4c-2.1,0-3.2-0.2-3.3-0.7l-0.1-1.1h-1.7l-0.1,1C50.3,18.2,50.1,18.4,49.7,18.5z
			 M51.7,13.6l-0.3-3.1h-0.4l-0.3,3.1H51.7z"/>
		<path class="st3" d="M61.4,18.7c-0.3,0-0.7,0-1.3,0s-1,0-1.2-0.1c-0.2-0.1-0.3-0.2-0.3-0.4V7.4c0-0.3,0.4-0.5,1.1-0.6
			c0.7-0.2,1.5-0.2,2.4-0.2s1.4,0.1,1.8,0.3c0.4,0.2,0.6,0.4,0.6,0.7l1.2,4.5H66l1.2-4.3c0.1-0.3,0.5-0.6,1.2-0.8s1.5-0.4,2.3-0.4
			s1.5,0.1,1.9,0.2c0.4,0.1,0.6,0.3,0.6,0.5v11c0,0.1-0.3,0.3-1,0.4c-0.7,0.1-1.5,0.1-2.5,0.1c-1,0-1.5-0.2-1.5-0.5
			c0-0.9,0.1-2.5,0.3-4.8h-0.2l-0.9,4.5c0,0.2-0.2,0.3-0.4,0.4c-0.3,0.1-0.6,0.1-1.2,0.1c-0.5,0-0.8,0-1-0.1
			c-0.1-0.1-0.2-0.2-0.2-0.4l-1-4.5h-0.2c0.2,2.4,0.3,4,0.3,4.8C63.7,18.5,62.9,18.7,61.4,18.7z"/>
		<path class="st3" d="M83.8,18.7h-7.7c-0.6,0-1,0-1.2-0.1c-0.2-0.1-0.3-0.2-0.3-0.4V7.4c0-0.3,0.1-0.5,0.4-0.6
			c0.3-0.1,0.8-0.2,1.5-0.2h7.3c0.3,0,0.4,0.4,0.4,1.2c0,0.8-0.1,1.4-0.2,1.8c-0.1,0.4-0.3,0.6-0.4,0.6c-0.8,0-2.1-0.1-4-0.2v1.1
			c1.8-0.1,3-0.1,3.5-0.1c0.3,0,0.5,0.4,0.5,1.1c0,0.7-0.1,1.3-0.2,1.6c-0.1,0.4-0.3,0.6-0.5,0.6l-3.3-0.1v1.1
			c2.1-0.1,3.5-0.2,4.3-0.2c0.3,0,0.4,0.4,0.4,1.2c0,0.8-0.1,1.4-0.2,1.8S83.9,18.7,83.8,18.7z"/>
		<path class="st3" d="M86.7,11.2c-0.4,0-0.6-0.3-0.8-0.8c-0.2-0.6-0.2-1.1-0.3-1.7c0-0.8-0.1-1.7-0.1-2.5c0-0.6,1-0.9,2.9-0.9
			c0.3,0,0.5,0.2,0.6,0.6c0.1,0.4,0.1,1.1,0.1,2.1C89.3,10.2,88.5,11.2,86.7,11.2z"/>
		<path class="st3" d="M99.8,18c-0.4,0.3-0.9,0.5-1.5,0.6s-1.5,0.2-2.5,0.2c-1,0-2-0.1-2.9-0.2c-0.9-0.2-1.6-0.3-2-0.5
			s-0.6-0.4-0.6-0.6c0-0.6,0.1-1.3,0.3-2c0.2-0.7,0.4-1,0.7-1c0,0,0.5,0.2,1.5,0.5c1,0.3,1.7,0.5,2.2,0.5c0.5,0,0.8,0,0.9-0.1
			c0.1-0.1,0.2-0.2,0.2-0.4c0-0.2-0.1-0.3-0.4-0.5s-0.6-0.3-1-0.4c-0.4-0.1-0.8-0.3-1.3-0.5c-0.5-0.2-0.9-0.4-1.3-0.7
			c-0.4-0.3-0.7-0.6-1-1.1c-0.3-0.5-0.4-1-0.4-1.6c0-2.5,1.6-3.8,4.8-3.8c1.2,0,2.2,0.1,3.1,0.2s1.5,0.3,1.8,0.5
			c0.4,0.2,0.5,0.4,0.5,0.5c0,0.6-0.1,1.2-0.4,1.9s-0.6,1-0.9,1c0,0-0.2-0.1-0.5-0.2c-0.8-0.3-1.5-0.5-2-0.5c-0.5,0-0.9,0-1.1,0.1
			c-0.2,0.1-0.3,0.2-0.3,0.4c0,0.2,0.1,0.3,0.4,0.5c0.3,0.1,0.6,0.2,1,0.3c0.4,0.1,0.8,0.2,1.3,0.4c0.5,0.2,0.9,0.4,1.3,0.7
			s0.7,0.6,1,1.1s0.4,1.1,0.4,1.7c0,0.7-0.2,1.3-0.6,1.9C100.5,17.5,100.2,17.8,99.8,18z"/>
		<path class="st3" d="M115.7,18.7H108c-0.6,0-1,0-1.2-0.1c-0.2-0.1-0.3-0.2-0.3-0.4V7.4c0-0.3,0.1-0.5,0.4-0.6
			c0.3-0.1,0.8-0.2,1.5-0.2h7.3c0.3,0,0.4,0.4,0.4,1.2c0,0.8-0.1,1.4-0.2,1.8c-0.1,0.4-0.3,0.6-0.4,0.6c-0.8,0-2.1-0.1-4-0.2v1.1
			c1.8-0.1,3-0.1,3.5-0.1c0.3,0,0.5,0.4,0.5,1.1c0,0.7-0.1,1.3-0.2,1.6c-0.1,0.4-0.3,0.6-0.5,0.6l-3.3-0.1v1.1
			c2.1-0.1,3.5-0.2,4.3-0.2c0.3,0,0.4,0.4,0.4,1.2c0,0.8-0.1,1.4-0.2,1.8S115.9,18.7,115.7,18.7z"/>
		<path class="st3" d="M121.5,18.6c-0.7,0.1-1.5,0.1-2.2,0.1s-1.2,0-1.4-0.1c-0.2-0.1-0.3-0.2-0.3-0.4V7.7c0-0.3,0.3-0.5,1-0.8
			c0.7-0.2,1.5-0.4,2.4-0.4c0.3,0,0.5,0,0.7,0c0.4,0.1,0.7,0.3,0.9,0.7l1.7,4.4h0.1v-4c0-0.3,0.3-0.5,1-0.8c0.7-0.2,1.5-0.4,2.4-0.4
			c0.8,0,1.2,0.1,1.4,0.4c0.1,0.2,0.2,0.4,0.2,0.5v10.7c0,0.1-0.4,0.3-1.1,0.4c-0.7,0.1-1.6,0.1-2.4,0.1c-0.9,0-1.4-0.1-1.5-0.3
			l-1.7-4.2h-0.1v4C122.6,18.4,122.2,18.5,121.5,18.6z"/>
		<path class="st3" d="M136.6,18.7h-4.3c-0.6,0-1,0-1.2-0.1c-0.2-0.1-0.3-0.2-0.3-0.4V7.4c0-0.3,0.1-0.5,0.4-0.6s0.7-0.2,1.4-0.2
			h4.1c2.3,0,3.9,0.4,4.8,1.3c0.9,0.9,1.3,2.4,1.3,4.7c0,2.3-0.5,3.9-1.4,4.8S138.9,18.7,136.6,18.7z M136.5,9.1
			c-0.3,0-0.5,0-0.6,0.1v6.9l0.7,0.1c0.4,0,0.6-0.3,0.8-0.8c0.2-0.5,0.3-1.5,0.3-2.8c0-1.3-0.1-2.3-0.3-2.7
			C137.2,9.3,136.9,9.1,136.5,9.1z"/>
	</g>
	<g>
		<path class="st2" d="M10.1,32.1c-0.3,0.1-1,0.2-1.9,0.2S6.6,32.2,6,32.1c-0.6-0.2-0.9-0.4-0.9-0.6c0-0.3,0.5-2,1.6-5.3
			c1.1-3.2,1.7-5.1,1.8-5.6c0.1-0.1,0.5-0.3,1.5-0.4c0.9-0.1,1.9-0.1,2.9-0.1s1.6,0.2,1.7,0.5c2.3,7.2,3.4,10.8,3.4,10.9
			c0,0.1-0.1,0.2-0.2,0.3c-0.3,0.3-1,0.4-2,0.4c-2.1,0-3.2-0.2-3.3-0.7l-0.1-1.1h-1.7l-0.1,1C10.6,31.8,10.5,32,10.1,32.1z
			 M12.1,27.2l-0.3-3.1h-0.4l-0.3,3.1H12.1z"/>
		<path class="st2" d="M23.8,32.2c-0.7,0.1-1.5,0.1-2.2,0.1c-0.7,0-1.2,0-1.4-0.1c-0.2-0.1-0.3-0.2-0.3-0.3v-7.4h-2.5
			c-0.1,0-0.2-0.2-0.3-0.5c-0.1-0.3-0.1-0.8-0.1-1.4s0.1-1.2,0.2-1.7c0.1-0.5,0.3-0.8,0.6-0.8h9.8c0.2,0,0.3,0.2,0.4,0.5
			c0.1,0.3,0.1,0.8,0.1,1.4c0,0.6-0.1,1.2-0.2,1.7c-0.1,0.5-0.3,0.8-0.5,0.8h-2.3v7.4C24.9,32,24.6,32.1,23.8,32.2z"/>
		<path class="st2" d="M37,32.5c-0.4,0-0.8,0-1.1-0.1c-0.4-0.1-0.7-0.2-1.1-0.5c-0.4-0.3-0.7-0.6-1-1c-0.6-1-0.9-2.4-0.9-4.3
			c0-1.1,0.2-2,0.5-2.8s0.7-1.4,1.1-1.9c0.5-0.5,1-0.8,1.6-1.1c0.6-0.3,1.2-0.5,1.8-0.6c0.6-0.1,1.1-0.1,1.8-0.1
			c1.4,0,2.5,0.1,3.1,0.4s0.9,0.7,0.9,1.3c0,0.5-0.1,1.1-0.3,1.7c-0.2,0.6-0.5,0.9-0.9,0.9c-0.1,0-0.5-0.1-1.2-0.3
			c-0.7-0.2-1.3-0.3-1.6-0.3c-1,0-1.6,0.8-1.6,2.5c0,0.8,0.1,1.5,0.4,1.9c0.2,0.4,0.5,0.6,0.9,0.7v-1.5c0-0.3,0.3-0.5,0.9-0.8
			c0.6-0.2,1.2-0.4,1.8-0.4c0.6,0,1,0,1.2,0.1c0.3,0.1,0.4,0.2,0.5,0.3c0.2,0.2,0.3,0.4,0.3,0.5v4.7c0,0.1-0.3,0.3-1,0.4
			c-0.6,0.1-1.3,0.1-2,0.1c-0.7,0-1.1,0-1.3-0.1c-0.2-0.1-0.3-0.2-0.3-0.5l-0.1-1h-0.1c-0.1,0.5-0.3,0.9-0.6,1.3
			C38.2,32.3,37.7,32.5,37,32.5z"/>
		<path class="st2" d="M49.7,32.1c-0.3,0.1-1,0.2-1.9,0.2s-1.6-0.1-2.2-0.2c-0.6-0.2-0.9-0.4-0.9-0.6c0-0.3,0.5-2,1.6-5.3
			c1.1-3.2,1.7-5.1,1.8-5.6c0.1-0.1,0.5-0.3,1.5-0.4c0.9-0.1,1.9-0.1,2.9-0.1s1.6,0.2,1.7,0.5c2.3,7.2,3.4,10.8,3.4,10.9
			c0,0.1-0.1,0.2-0.2,0.3c-0.3,0.3-1,0.4-2,0.4c-2.1,0-3.2-0.2-3.3-0.7l-0.1-1.1h-1.7l-0.1,1C50.3,31.8,50.1,32,49.7,32.1z
			 M51.7,27.2l-0.3-3.1h-0.4l-0.3,3.1H51.7z"/>
		<path class="st2" d="M61.4,32.3c-0.3,0-0.7,0-1.3,0s-1,0-1.2-0.1c-0.2-0.1-0.3-0.2-0.3-0.4V21c0-0.3,0.4-0.5,1.1-0.6
			c0.7-0.2,1.5-0.2,2.4-0.2s1.4,0.1,1.8,0.3c0.4,0.2,0.6,0.4,0.6,0.7l1.2,4.5H66l1.2-4.3c0.1-0.3,0.5-0.6,1.2-0.8s1.5-0.4,2.3-0.4
			s1.5,0.1,1.9,0.2c0.4,0.1,0.6,0.3,0.6,0.5v11c0,0.1-0.3,0.3-1,0.4c-0.7,0.1-1.5,0.1-2.5,0.1c-1,0-1.5-0.2-1.5-0.5
			c0-0.9,0.1-2.5,0.3-4.8h-0.2l-0.9,4.5c0,0.2-0.2,0.3-0.4,0.4c-0.3,0.1-0.6,0.1-1.2,0.1c-0.5,0-0.8,0-1-0.1
			c-0.1-0.1-0.2-0.2-0.2-0.4l-1-4.5h-0.2c0.2,2.4,0.3,4,0.3,4.8C63.7,32.1,62.9,32.3,61.4,32.3z"/>
		<path class="st2" d="M83.8,32.3h-7.7c-0.6,0-1,0-1.2-0.1c-0.2-0.1-0.3-0.2-0.3-0.4V21c0-0.3,0.1-0.5,0.4-0.6
			c0.3-0.1,0.8-0.2,1.5-0.2h7.3c0.3,0,0.4,0.4,0.4,1.2c0,0.8-0.1,1.4-0.2,1.8c-0.1,0.4-0.3,0.6-0.4,0.6c-0.8,0-2.1-0.1-4-0.2v1.1
			c1.8-0.1,3-0.1,3.5-0.1c0.3,0,0.5,0.4,0.5,1.1c0,0.7-0.1,1.3-0.2,1.6c-0.1,0.4-0.3,0.6-0.5,0.6l-3.3-0.1v1.1
			c2.1-0.1,3.5-0.2,4.3-0.2c0.3,0,0.4,0.4,0.4,1.2c0,0.8-0.1,1.4-0.2,1.8S83.9,32.3,83.8,32.3z"/>
		<path class="st2" d="M86.7,24.8c-0.4,0-0.6-0.3-0.8-0.8c-0.2-0.6-0.2-1.1-0.3-1.7c0-0.8-0.1-1.7-0.1-2.5c0-0.6,1-0.9,2.9-0.9
			c0.3,0,0.5,0.2,0.6,0.6c0.1,0.4,0.1,1.1,0.1,2.1C89.3,23.8,88.5,24.8,86.7,24.8z"/>
		<path class="st2" d="M99.8,31.6c-0.4,0.3-0.9,0.5-1.5,0.6s-1.5,0.2-2.5,0.2c-1,0-2-0.1-2.9-0.2c-0.9-0.2-1.6-0.3-2-0.5
			s-0.6-0.4-0.6-0.6c0-0.6,0.1-1.3,0.3-2c0.2-0.7,0.4-1,0.7-1c0,0,0.5,0.2,1.5,0.5c1,0.3,1.7,0.5,2.2,0.5c0.5,0,0.8,0,0.9-0.1
			c0.1-0.1,0.2-0.2,0.2-0.4c0-0.2-0.1-0.3-0.4-0.5s-0.6-0.3-1-0.4c-0.4-0.1-0.8-0.3-1.3-0.5c-0.5-0.2-0.9-0.4-1.3-0.7
			c-0.4-0.3-0.7-0.6-1-1.1c-0.3-0.5-0.4-1-0.4-1.6c0-2.5,1.6-3.8,4.8-3.8c1.2,0,2.2,0.1,3.1,0.2s1.5,0.3,1.8,0.5
			c0.4,0.2,0.5,0.4,0.5,0.5c0,0.6-0.1,1.2-0.4,1.9s-0.6,1-0.9,1c0,0-0.2-0.1-0.5-0.2c-0.8-0.3-1.5-0.5-2-0.5c-0.5,0-0.9,0-1.1,0.1
			c-0.2,0.1-0.3,0.2-0.3,0.4c0,0.2,0.1,0.3,0.4,0.5c0.3,0.1,0.6,0.2,1,0.3c0.4,0.1,0.8,0.2,1.3,0.4c0.5,0.2,0.9,0.4,1.3,0.7
			s0.7,0.6,1,1.1s0.4,1.1,0.4,1.7c0,0.7-0.2,1.3-0.6,1.9C100.5,31.1,100.2,31.4,99.8,31.6z"/>
		<path class="st2" d="M115.7,32.3H108c-0.6,0-1,0-1.2-0.1c-0.2-0.1-0.3-0.2-0.3-0.4V21c0-0.3,0.1-0.5,0.4-0.6
			c0.3-0.1,0.8-0.2,1.5-0.2h7.3c0.3,0,0.4,0.4,0.4,1.2c0,0.8-0.1,1.4-0.2,1.8c-0.1,0.4-0.3,0.6-0.4,0.6c-0.8,0-2.1-0.1-4-0.2v1.1
			c1.8-0.1,3-0.1,3.5-0.1c0.3,0,0.5,0.4,0.5,1.1c0,0.7-0.1,1.3-0.2,1.6c-0.1,0.4-0.3,0.6-0.5,0.6l-3.3-0.1v1.1
			c2.1-0.1,3.5-0.2,4.3-0.2c0.3,0,0.4,0.4,0.4,1.2c0,0.8-0.1,1.4-0.2,1.8S115.9,32.3,115.7,32.3z"/>
		<path class="st2" d="M121.5,32.2c-0.7,0.1-1.5,0.1-2.2,0.1s-1.2,0-1.4-0.1c-0.2-0.1-0.3-0.2-0.3-0.4V21.3c0-0.3,0.3-0.5,1-0.8
			c0.7-0.2,1.5-0.4,2.4-0.4c0.3,0,0.5,0,0.7,0c0.4,0.1,0.7,0.3,0.9,0.7l1.7,4.4h0.1v-4c0-0.3,0.3-0.5,1-0.8c0.7-0.2,1.5-0.4,2.4-0.4
			c0.8,0,1.2,0.1,1.4,0.4c0.1,0.2,0.2,0.4,0.2,0.5v10.7c0,0.1-0.4,0.3-1.1,0.4c-0.7,0.1-1.6,0.1-2.4,0.1c-0.9,0-1.4-0.1-1.5-0.3
			l-1.7-4.2h-0.1v4C122.6,32,122.2,32.1,121.5,32.2z"/>
		<path class="st2" d="M136.6,32.3h-4.3c-0.6,0-1,0-1.2-0.1c-0.2-0.1-0.3-0.2-0.3-0.4V21c0-0.3,0.1-0.5,0.4-0.6s0.7-0.2,1.4-0.2h4.1
			c2.3,0,3.9,0.4,4.8,1.3c0.9,0.9,1.3,2.4,1.3,4.7c0,2.3-0.5,3.9-1.4,4.8S138.9,32.3,136.6,32.3z M136.5,22.7c-0.3,0-0.5,0-0.6,0.1
			v6.9l0.7,0.1c0.4,0,0.6-0.3,0.8-0.8c0.2-0.5,0.3-1.5,0.3-2.8c0-1.3-0.1-2.3-0.3-2.7C137.2,22.9,136.9,22.7,136.5,22.7z"/>
	</g>
	<g>
		<path class="st1" d="M10.1,45.7c-0.3,0.1-1,0.2-1.9,0.2S6.6,45.8,6,45.7c-0.6-0.2-0.9-0.4-0.9-0.6c0-0.3,0.5-2,1.6-5.3
			c1.1-3.2,1.7-5.1,1.8-5.6c0.1-0.1,0.5-0.3,1.5-0.4c0.9-0.1,1.9-0.1,2.9-0.1s1.6,0.2,1.7,0.5c2.3,7.2,3.4,10.8,3.4,10.9
			s-0.1,0.2-0.2,0.3c-0.3,0.3-1,0.4-2,0.4c-2.1,0-3.2-0.2-3.3-0.7l-0.1-1.1h-1.7l-0.1,1C10.6,45.4,10.5,45.6,10.1,45.7z M12.1,40.8
			l-0.3-3.1h-0.4l-0.3,3.1H12.1z"/>
		<path class="st1" d="M23.8,45.8c-0.7,0.1-1.5,0.1-2.2,0.1c-0.7,0-1.2,0-1.4-0.1c-0.2-0.1-0.3-0.2-0.3-0.3v-7.4h-2.5
			c-0.1,0-0.2-0.2-0.3-0.5s-0.1-0.8-0.1-1.4c0-0.6,0.1-1.2,0.2-1.7c0.1-0.5,0.3-0.8,0.6-0.8h9.8c0.2,0,0.3,0.2,0.4,0.5
			c0.1,0.3,0.1,0.8,0.1,1.4s-0.1,1.2-0.2,1.7c-0.1,0.5-0.3,0.8-0.5,0.8h-2.3v7.4C24.9,45.6,24.6,45.7,23.8,45.8z"/>
		<path class="st1" d="M37,46.1c-0.4,0-0.8,0-1.1-0.1s-0.7-0.2-1.1-0.5s-0.7-0.6-1-1c-0.6-1-0.9-2.4-0.9-4.3c0-1.1,0.2-2,0.5-2.8
			s0.7-1.4,1.1-1.9c0.5-0.5,1-0.8,1.6-1.1c0.6-0.3,1.2-0.5,1.8-0.6c0.6-0.1,1.1-0.1,1.8-0.1c1.4,0,2.5,0.1,3.1,0.4s0.9,0.7,0.9,1.3
			c0,0.5-0.1,1.1-0.3,1.7c-0.2,0.6-0.5,0.9-0.9,0.9c-0.1,0-0.5-0.1-1.2-0.3c-0.7-0.2-1.3-0.3-1.6-0.3c-1,0-1.6,0.8-1.6,2.5
			c0,0.8,0.1,1.5,0.4,1.9c0.2,0.4,0.5,0.6,0.9,0.7v-1.5c0-0.3,0.3-0.5,0.9-0.8c0.6-0.2,1.2-0.4,1.8-0.4c0.6,0,1,0,1.2,0.1
			c0.3,0.1,0.4,0.2,0.5,0.3c0.2,0.2,0.3,0.4,0.3,0.5v4.7c0,0.1-0.3,0.3-1,0.4s-1.3,0.1-2,0.1c-0.7,0-1.1,0-1.3-0.1
			c-0.2-0.1-0.3-0.2-0.3-0.5l-0.1-1h-0.1c-0.1,0.5-0.3,0.9-0.6,1.3C38.2,45.9,37.7,46.1,37,46.1z"/>
		<path class="st1" d="M49.7,45.7c-0.3,0.1-1,0.2-1.9,0.2s-1.6-0.1-2.2-0.2c-0.6-0.2-0.9-0.4-0.9-0.6c0-0.3,0.5-2,1.6-5.3
			c1.1-3.2,1.7-5.1,1.8-5.6c0.1-0.1,0.5-0.3,1.5-0.4c0.9-0.1,1.9-0.1,2.9-0.1s1.6,0.2,1.7,0.5c2.3,7.2,3.4,10.8,3.4,10.9
			s-0.1,0.2-0.2,0.3c-0.3,0.3-1,0.4-2,0.4c-2.1,0-3.2-0.2-3.3-0.7l-0.1-1.1h-1.7l-0.1,1C50.3,45.4,50.1,45.6,49.7,45.7z M51.7,40.8
			l-0.3-3.1h-0.4l-0.3,3.1H51.7z"/>
		<path class="st1" d="M61.4,45.9c-0.3,0-0.7,0-1.3,0s-1,0-1.2-0.1c-0.2-0.1-0.3-0.2-0.3-0.4V34.6c0-0.3,0.4-0.5,1.1-0.6
			c0.7-0.2,1.5-0.2,2.4-0.2s1.4,0.1,1.8,0.3c0.4,0.2,0.6,0.4,0.6,0.7l1.2,4.5H66l1.2-4.3c0.1-0.3,0.5-0.6,1.2-0.8s1.5-0.4,2.3-0.4
			s1.5,0.1,1.9,0.2c0.4,0.1,0.6,0.3,0.6,0.5v11c0,0.1-0.3,0.3-1,0.4s-1.5,0.1-2.5,0.1c-1,0-1.5-0.2-1.5-0.5c0-0.9,0.1-2.5,0.3-4.8
			h-0.2l-0.9,4.5c0,0.2-0.2,0.3-0.4,0.4c-0.3,0.1-0.6,0.1-1.2,0.1c-0.5,0-0.8,0-1-0.1s-0.2-0.2-0.2-0.4l-1-4.5h-0.2
			c0.2,2.4,0.3,4,0.3,4.8C63.7,45.7,62.9,45.9,61.4,45.9z"/>
		<path class="st1" d="M83.8,45.9h-7.7c-0.6,0-1,0-1.2-0.1c-0.2-0.1-0.3-0.2-0.3-0.4V34.6c0-0.3,0.1-0.5,0.4-0.6
			c0.3-0.1,0.8-0.2,1.5-0.2h7.3c0.3,0,0.4,0.4,0.4,1.2c0,0.8-0.1,1.4-0.2,1.8c-0.1,0.4-0.3,0.6-0.4,0.6c-0.8,0-2.1-0.1-4-0.2v1.1
			c1.8-0.1,3-0.1,3.5-0.1c0.3,0,0.5,0.4,0.5,1.1c0,0.7-0.1,1.3-0.2,1.6s-0.3,0.6-0.5,0.6l-3.3-0.1v1.1c2.1-0.1,3.5-0.2,4.3-0.2
			c0.3,0,0.4,0.4,0.4,1.2c0,0.8-0.1,1.4-0.2,1.8C84.1,45.7,83.9,45.9,83.8,45.9z"/>
		<path class="st1" d="M86.7,38.4c-0.4,0-0.6-0.3-0.8-0.8c-0.2-0.6-0.2-1.1-0.3-1.7c0-0.8-0.1-1.7-0.1-2.5c0-0.6,1-0.9,2.9-0.9
			c0.3,0,0.5,0.2,0.6,0.6c0.1,0.4,0.1,1.1,0.1,2.1C89.3,37.4,88.5,38.4,86.7,38.4z"/>
		<path class="st1" d="M99.8,45.2c-0.4,0.3-0.9,0.5-1.5,0.6c-0.6,0.2-1.5,0.2-2.5,0.2c-1,0-2-0.1-2.9-0.2c-0.9-0.2-1.6-0.3-2-0.5
			s-0.6-0.4-0.6-0.6c0-0.6,0.1-1.3,0.3-2s0.4-1,0.7-1c0,0,0.5,0.2,1.5,0.5c1,0.3,1.7,0.5,2.2,0.5c0.5,0,0.8,0,0.9-0.1
			c0.1-0.1,0.2-0.2,0.2-0.4c0-0.2-0.1-0.3-0.4-0.5c-0.3-0.1-0.6-0.3-1-0.4c-0.4-0.1-0.8-0.3-1.3-0.5s-0.9-0.4-1.3-0.7
			c-0.4-0.3-0.7-0.6-1-1.1c-0.3-0.5-0.4-1-0.4-1.6c0-2.5,1.6-3.8,4.8-3.8c1.2,0,2.2,0.1,3.1,0.2c0.9,0.1,1.5,0.3,1.8,0.5
			c0.4,0.2,0.5,0.4,0.5,0.5c0,0.6-0.1,1.2-0.4,1.9s-0.6,1-0.9,1c0,0-0.2-0.1-0.5-0.2c-0.8-0.3-1.5-0.5-2-0.5c-0.5,0-0.9,0-1.1,0.1
			c-0.2,0.1-0.3,0.2-0.3,0.4s0.1,0.3,0.4,0.5s0.6,0.2,1,0.3c0.4,0.1,0.8,0.2,1.3,0.4s0.9,0.4,1.3,0.7s0.7,0.6,1,1.1s0.4,1.1,0.4,1.7
			c0,0.7-0.2,1.3-0.6,1.9C100.5,44.6,100.2,44.9,99.8,45.2z"/>
		<path class="st1" d="M115.7,45.9H108c-0.6,0-1,0-1.2-0.1c-0.2-0.1-0.3-0.2-0.3-0.4V34.6c0-0.3,0.1-0.5,0.4-0.6
			c0.3-0.1,0.8-0.2,1.5-0.2h7.3c0.3,0,0.4,0.4,0.4,1.2c0,0.8-0.1,1.4-0.2,1.8c-0.1,0.4-0.3,0.6-0.4,0.6c-0.8,0-2.1-0.1-4-0.2v1.1
			c1.8-0.1,3-0.1,3.5-0.1c0.3,0,0.5,0.4,0.5,1.1c0,0.7-0.1,1.3-0.2,1.6s-0.3,0.6-0.5,0.6l-3.3-0.1v1.1c2.1-0.1,3.5-0.2,4.3-0.2
			c0.3,0,0.4,0.4,0.4,1.2c0,0.8-0.1,1.4-0.2,1.8C116,45.7,115.9,45.9,115.7,45.9z"/>
		<path class="st1" d="M121.5,45.8c-0.7,0.1-1.5,0.1-2.2,0.1s-1.2,0-1.4-0.1c-0.2-0.1-0.3-0.2-0.3-0.4V34.9c0-0.3,0.3-0.5,1-0.8
			c0.7-0.2,1.5-0.4,2.4-0.4c0.3,0,0.5,0,0.7,0c0.4,0.1,0.7,0.3,0.9,0.7l1.7,4.4h0.1v-4c0-0.3,0.3-0.5,1-0.8c0.7-0.2,1.5-0.4,2.4-0.4
			c0.8,0,1.2,0.1,1.4,0.4c0.1,0.2,0.2,0.4,0.2,0.5v10.7c0,0.1-0.4,0.3-1.1,0.4s-1.6,0.1-2.4,0.1c-0.9,0-1.4-0.1-1.5-0.3l-1.7-4.2
			h-0.1v4C122.6,45.6,122.2,45.7,121.5,45.8z"/>
		<path class="st1" d="M136.6,45.9h-4.3c-0.6,0-1,0-1.2-0.1c-0.2-0.1-0.3-0.2-0.3-0.4V34.6c0-0.3,0.1-0.5,0.4-0.6
			c0.3-0.1,0.7-0.2,1.4-0.2h4.1c2.3,0,3.9,0.4,4.8,1.3c0.9,0.9,1.3,2.4,1.3,4.7c0,2.3-0.5,3.9-1.4,4.8S138.9,45.9,136.6,45.9z
			 M136.5,36.3c-0.3,0-0.5,0-0.6,0.1v6.9l0.7,0.1c0.4,0,0.6-0.3,0.8-0.8s0.3-1.5,0.3-2.8s-0.1-2.3-0.3-2.7
			C137.2,36.5,136.9,36.3,136.5,36.3z"/>
	</g>
	<g>
		<path class="st0" d="M10.1,59.3c-0.3,0.1-1,0.2-1.9,0.2S6.6,59.4,6,59.3c-0.6-0.2-0.9-0.4-0.9-0.6c0-0.3,0.5-2,1.6-5.3
			c1.1-3.2,1.7-5.1,1.8-5.6c0.1-0.1,0.5-0.3,1.5-0.4c0.9-0.1,1.9-0.1,2.9-0.1s1.6,0.2,1.7,0.5c2.3,7.2,3.4,10.8,3.4,10.9
			c0,0.1-0.1,0.2-0.2,0.3c-0.3,0.3-1,0.4-2,0.4c-2.1,0-3.2-0.2-3.3-0.7l-0.1-1.1h-1.7l-0.1,1C10.6,59,10.5,59.2,10.1,59.3z
			 M12.1,54.4l-0.3-3.1h-0.4l-0.3,3.1H12.1z"/>
		<path class="st0" d="M23.8,59.4c-0.7,0.1-1.5,0.1-2.2,0.1c-0.7,0-1.2,0-1.4-0.1c-0.2-0.1-0.3-0.2-0.3-0.3v-7.4h-2.5
			c-0.1,0-0.2-0.2-0.3-0.5c-0.1-0.3-0.1-0.8-0.1-1.4c0-0.6,0.1-1.2,0.2-1.7c0.1-0.5,0.3-0.8,0.6-0.8h9.8c0.2,0,0.3,0.2,0.4,0.5
			c0.1,0.3,0.1,0.8,0.1,1.4c0,0.6-0.1,1.2-0.2,1.7c-0.1,0.5-0.3,0.8-0.5,0.8h-2.3v7.4C24.9,59.2,24.6,59.3,23.8,59.4z"/>
		<path class="st0" d="M37,59.6c-0.4,0-0.8,0-1.1-0.1c-0.4-0.1-0.7-0.2-1.1-0.5c-0.4-0.3-0.7-0.6-1-1c-0.6-1-0.9-2.4-0.9-4.3
			c0-1.1,0.2-2,0.5-2.8s0.7-1.4,1.1-1.9s1-0.8,1.6-1.1c0.6-0.3,1.2-0.5,1.8-0.6s1.1-0.1,1.8-0.1c1.4,0,2.5,0.1,3.1,0.4
			s0.9,0.7,0.9,1.3c0,0.5-0.1,1.1-0.3,1.7c-0.2,0.6-0.5,0.9-0.9,0.9c-0.1,0-0.5-0.1-1.2-0.3C40.5,51,39.9,51,39.6,51
			c-1,0-1.6,0.8-1.6,2.5c0,0.8,0.1,1.5,0.4,1.9c0.2,0.4,0.5,0.6,0.9,0.7v-1.5c0-0.3,0.3-0.5,0.9-0.8s1.2-0.4,1.8-0.4
			c0.6,0,1,0,1.2,0.1c0.3,0.1,0.4,0.2,0.5,0.3c0.2,0.2,0.3,0.4,0.3,0.5V59c0,0.1-0.3,0.3-1,0.4c-0.6,0.1-1.3,0.1-2,0.1
			c-0.7,0-1.1,0-1.3-0.1c-0.2-0.1-0.3-0.2-0.3-0.5l-0.1-1h-0.1c-0.1,0.5-0.3,0.9-0.6,1.3C38.2,59.5,37.7,59.6,37,59.6z"/>
		<path class="st0" d="M49.7,59.3c-0.3,0.1-1,0.2-1.9,0.2s-1.6-0.1-2.2-0.2c-0.6-0.2-0.9-0.4-0.9-0.6c0-0.3,0.5-2,1.6-5.3
			c1.1-3.2,1.7-5.1,1.8-5.6c0.1-0.1,0.5-0.3,1.5-0.4c0.9-0.1,1.9-0.1,2.9-0.1s1.6,0.2,1.7,0.5c2.3,7.2,3.4,10.8,3.4,10.9
			c0,0.1-0.1,0.2-0.2,0.3c-0.3,0.3-1,0.4-2,0.4c-2.1,0-3.2-0.2-3.3-0.7l-0.1-1.1h-1.7l-0.1,1C50.3,59,50.1,59.2,49.7,59.3z
			 M51.7,54.4l-0.3-3.1h-0.4l-0.3,3.1H51.7z"/>
		<path class="st0" d="M61.4,59.5c-0.3,0-0.7,0-1.3,0s-1,0-1.2-0.1c-0.2-0.1-0.3-0.2-0.3-0.4V48.2c0-0.3,0.4-0.5,1.1-0.6
			c0.7-0.2,1.5-0.2,2.4-0.2s1.4,0.1,1.8,0.3c0.4,0.2,0.6,0.4,0.6,0.7l1.2,4.5H66l1.2-4.3c0.1-0.3,0.5-0.6,1.2-0.8s1.5-0.4,2.3-0.4
			s1.5,0.1,1.9,0.2c0.4,0.1,0.6,0.3,0.6,0.5v11c0,0.1-0.3,0.3-1,0.4c-0.7,0.1-1.5,0.1-2.5,0.1c-1,0-1.5-0.2-1.5-0.5
			c0-0.9,0.1-2.5,0.3-4.8h-0.2l-0.9,4.5c0,0.2-0.2,0.3-0.4,0.4s-0.6,0.1-1.2,0.1c-0.5,0-0.8,0-1-0.1c-0.1-0.1-0.2-0.2-0.2-0.4
			l-1-4.5h-0.2c0.2,2.4,0.3,4,0.3,4.8C63.7,59.3,62.9,59.5,61.4,59.5z"/>
		<path class="st0" d="M83.8,59.5h-7.7c-0.6,0-1,0-1.2-0.1c-0.2-0.1-0.3-0.2-0.3-0.4V48.2c0-0.3,0.1-0.5,0.4-0.6
			c0.3-0.1,0.8-0.2,1.5-0.2h7.3c0.3,0,0.4,0.4,0.4,1.2s-0.1,1.4-0.2,1.8S83.8,51,83.6,51c-0.8,0-2.1-0.1-4-0.2v1.1
			c1.8-0.1,3-0.1,3.5-0.1c0.3,0,0.5,0.4,0.5,1.1s-0.1,1.3-0.2,1.6c-0.1,0.4-0.3,0.6-0.5,0.6L79.6,55v1.1c2.1-0.1,3.5-0.2,4.3-0.2
			c0.3,0,0.4,0.4,0.4,1.2s-0.1,1.4-0.2,1.8C84.1,59.3,83.9,59.5,83.8,59.5z"/>
		<path class="st0" d="M86.7,52c-0.4,0-0.6-0.3-0.8-0.8c-0.2-0.6-0.2-1.1-0.3-1.7c0-0.8-0.1-1.7-0.1-2.5c0-0.6,1-0.9,2.9-0.9
			c0.3,0,0.5,0.2,0.6,0.6c0.1,0.4,0.1,1.1,0.1,2.1C89.3,51,88.5,52,86.7,52z"/>
		<path class="st0" d="M99.8,58.8c-0.4,0.3-0.9,0.5-1.5,0.6c-0.6,0.2-1.5,0.2-2.5,0.2c-1,0-2-0.1-2.9-0.2s-1.6-0.3-2-0.5
			s-0.6-0.4-0.6-0.6c0-0.6,0.1-1.3,0.3-2c0.2-0.7,0.4-1,0.7-1c0,0,0.5,0.2,1.5,0.5c1,0.3,1.7,0.5,2.2,0.5c0.5,0,0.8,0,0.9-0.1
			c0.1-0.1,0.2-0.2,0.2-0.4s-0.1-0.3-0.4-0.5c-0.3-0.1-0.6-0.3-1-0.4c-0.4-0.1-0.8-0.3-1.3-0.5c-0.5-0.2-0.9-0.4-1.3-0.7
			c-0.4-0.3-0.7-0.6-1-1.1c-0.3-0.5-0.4-1-0.4-1.6c0-2.5,1.6-3.8,4.8-3.8c1.2,0,2.2,0.1,3.1,0.2c0.9,0.1,1.5,0.3,1.8,0.5
			c0.4,0.2,0.5,0.4,0.5,0.5c0,0.6-0.1,1.2-0.4,1.9s-0.6,1-0.9,1c0,0-0.2-0.1-0.5-0.2c-0.8-0.3-1.5-0.5-2-0.5c-0.5,0-0.9,0-1.1,0.1
			c-0.2,0.1-0.3,0.2-0.3,0.4c0,0.2,0.1,0.3,0.4,0.5c0.3,0.1,0.6,0.2,1,0.3c0.4,0.1,0.8,0.2,1.3,0.4c0.5,0.2,0.9,0.4,1.3,0.7
			s0.7,0.6,1,1.1s0.4,1.1,0.4,1.7c0,0.7-0.2,1.3-0.6,1.9C100.5,58.2,100.2,58.5,99.8,58.8z"/>
		<path class="st0" d="M115.7,59.5H108c-0.6,0-1,0-1.2-0.1c-0.2-0.1-0.3-0.2-0.3-0.4V48.2c0-0.3,0.1-0.5,0.4-0.6
			c0.3-0.1,0.8-0.2,1.5-0.2h7.3c0.3,0,0.4,0.4,0.4,1.2s-0.1,1.4-0.2,1.8s-0.3,0.6-0.4,0.6c-0.8,0-2.1-0.1-4-0.2v1.1
			c1.8-0.1,3-0.1,3.5-0.1c0.3,0,0.5,0.4,0.5,1.1s-0.1,1.3-0.2,1.6c-0.1,0.4-0.3,0.6-0.5,0.6l-3.3-0.1v1.1c2.1-0.1,3.5-0.2,4.3-0.2
			c0.3,0,0.4,0.4,0.4,1.2s-0.1,1.4-0.2,1.8C116,59.3,115.9,59.5,115.7,59.5z"/>
		<path class="st0" d="M121.5,59.4c-0.7,0.1-1.5,0.1-2.2,0.1s-1.2,0-1.4-0.1c-0.2-0.1-0.3-0.2-0.3-0.4V48.5c0-0.3,0.3-0.5,1-0.8
			c0.7-0.2,1.5-0.4,2.4-0.4c0.3,0,0.5,0,0.7,0c0.4,0.1,0.7,0.3,0.9,0.7l1.7,4.4h0.1v-4c0-0.3,0.3-0.5,1-0.8c0.7-0.2,1.5-0.4,2.4-0.4
			c0.8,0,1.2,0.1,1.4,0.4c0.1,0.2,0.2,0.4,0.2,0.5V59c0,0.1-0.4,0.3-1.1,0.4c-0.7,0.1-1.6,0.1-2.4,0.1c-0.9,0-1.4-0.1-1.5-0.3
			l-1.7-4.2h-0.1v4C122.6,59.2,122.2,59.3,121.5,59.4z"/>
		<path class="st0" d="M136.6,59.5h-4.3c-0.6,0-1,0-1.2-0.1c-0.2-0.1-0.3-0.2-0.3-0.4V48.2c0-0.3,0.1-0.5,0.4-0.6
			c0.3-0.1,0.7-0.2,1.4-0.2h4.1c2.3,0,3.9,0.4,4.8,1.3c0.9,0.9,1.3,2.4,1.3,4.7s-0.5,3.9-1.4,4.8S138.9,59.5,136.6,59.5z
			 M136.5,49.9c-0.3,0-0.5,0-0.6,0.1v6.9l0.7,0.1c0.4,0,0.6-0.3,0.8-0.8c0.2-0.5,0.3-1.5,0.3-2.8c0-1.3-0.1-2.3-0.3-2.7
			C137.2,50.1,136.9,49.9,136.5,49.9z"/>
	</g>
</g>
</svg>
